<?xml version="1.0" encoding="UTF-8"?>
<svg id="Layer_2" data-name="Layer 2" xmlns="http://www.w3.org/2000/svg" viewBox="0 0 53.91 23.56">
  <defs>
    <style>
      .cls-1 {
        fill: #231f20;
        stroke-width: 0px;
      }

      .cls-2 {
        fill: none;
        stroke: #231f20;
        stroke-linecap: round;
        stroke-miterlimit: 10;
        stroke-width: 2px;
      }
    </style>
  </defs>
  <g id="Layer_2-2" data-name="Layer 2">
    <g>
      <rect class="cls-2" x="1" y="1" width="51.91" height="21.56" rx="10.78" ry="10.78"/>
      <g>
        <path class="cls-1" d="m15.66,6.81h-.04l-2.21,1.19-.33-1.31,2.78-1.49h1.47v12.72h-1.66V6.81Z"/>
        <path class="cls-1" d="m21.96,17.93v-1.06l1.35-1.31c3.25-3.09,4.72-4.74,4.74-6.66,0-1.29-.63-2.49-2.53-2.49-1.15,0-2.11.59-2.7,1.08l-.55-1.21c.88-.74,2.13-1.29,3.6-1.29,2.74,0,3.9,1.88,3.9,3.7,0,2.35-1.7,4.25-4.39,6.83l-1.02.94v.04h5.72v1.43h-8.12Z"/>
        <path class="cls-1" d="m32.42,15.96c.49.31,1.62.8,2.82.8,2.21,0,2.9-1.41,2.88-2.47-.02-1.78-1.62-2.54-3.29-2.54h-.96v-1.29h.96c1.25,0,2.84-.65,2.84-2.15,0-1.02-.65-1.92-2.23-1.92-1.02,0-2,.45-2.55.84l-.45-1.25c.67-.49,1.96-.98,3.33-.98,2.51,0,3.64,1.49,3.64,3.03,0,1.31-.78,2.43-2.35,3v.04c1.57.31,2.84,1.49,2.84,3.27,0,2.04-1.59,3.82-4.64,3.82-1.43,0-2.68-.45-3.31-.86l.47-1.33Z"/>
      </g>
    </g>
  </g>
</svg>