<?xml version="1.0" encoding="UTF-8"?>
<svg id="Layer_2" data-name="Layer 2" xmlns="http://www.w3.org/2000/svg" viewBox="0 0 147.89 31.65">
  <defs>
    <style>
      .cls-1 {
        fill: #e7f9ff;
      }

      .cls-1, .cls-2, .cls-3 {
        stroke-width: 0px;
      }

      .cls-4 {
        fill: none;
        stroke: #000;
        stroke-linecap: round;
        stroke-linejoin: round;
        stroke-width: .5px;
      }

      .cls-2 {
        fill: #000;
      }

      .cls-3 {
        fill: #ffc93d;
      }
    </style>
  </defs>
  <g id="Layer_1-2" data-name="Layer 1">
    <g>
      <circle class="cls-3" cx="94.28" cy="16.31" r="15.34"/>
      <circle class="cls-1" cx="132.55" cy="16.31" r="15.34"/>
      <circle class="cls-1" cx="15.34" cy="16.31" r="15.34"/>
      <circle class="cls-3" cx="55.65" cy="15.34" r="15.34"/>
      <g id="Layer_1-2" data-name="Layer 1-2">
        <path class="cls-2" d="M63.82,9.08c-.02-.14-.16-.23-.29-.21-.14.02-.23.15-.21.29.31,1.88-.16,3-.76,3.68-.14-.19-.28-.37-.44-.54-.29-.31-.67-.57-1.1-.78.16-.34.49-1.25.34-2.56-.02-.14-.15-.24-.28-.22-.14.02-.24.14-.22.28.14,1.21-.19,2.06-.31,2.31-.89-.32-1.95-.43-3.08-.33-.05-.52-.17-1.03-.36-1.5-.74-1.8-2.29-2.74-4.07-2.43-1.05.18-1.85.74-2.32,1.56-1-.18-2.01.08-2.85.78-1.32,1.1-1.61,2.73-.74,4.27.61,1.08,1.78,2.02,3.24,2.43-.43,1.18-.53,2.41-.27,3.51l-2.07,2.48,3.34-.43c.51.33,1.22.58,2.07.72.49.08,1.03.12,1.59.12,2.21,0,4.82-.61,6.53-2,1.3-1.05,2.05-2.38,2.15-3.84.08-1.15-.24-2.36-.88-3.4.72-.76,1.31-2.03.97-4.18ZM53.15,7.57c.2-.04.39-.05.57-.05,1.29,0,2.36.79,2.93,2.18.17.42.28.89.33,1.37-.88.13-1.77.4-2.62.81-.37-.96-.99-1.8-1.74-2.38-.44-.34-.9-.58-1.37-.73.4-.62,1.04-1.05,1.89-1.19h0ZM47.59,13.43c-.75-1.33-.51-2.69.62-3.63.58-.48,1.24-.73,1.93-.73.13,0,.26.02.39.04.17.02.33.06.5.11.44.13.87.35,1.29.68.69.54,1.26,1.32,1.6,2.21.04.11.08.22.11.34.02.05.03.1.04.15.19.76.2,1.57-.05,2.38-.03.1-.06.19-.1.28-.03.07-.05.13-.08.19-.01.03-.02.06-.04.09-.46.15-.91.24-1.35.27-.48.04-.95.02-1.39-.06-.03,0-.05,0-.07-.01-.15-.03-.29-.06-.42-.1-1.35-.36-2.43-1.21-2.99-2.21h-.01ZM53.54,21.88c-1.19-.19-2.05-.59-2.4-1.14h0c-.72-1.1-.91-2.82-.26-4.53.08.02.15.04.23.05.35,1.54,1.34,4.24,3.62,5.73-.42-.02-.82-.05-1.19-.11h0ZM56.68,21.89c-2.45-1.51-3.57-3.82-4.08-5.59.48-.05.98-.15,1.48-.32l.1-.04.02-.03c.76,1.73,2.16,3.84,4.71,5.45-.72.25-1.47.42-2.22.52ZM61.27,20.11c-.27.22-.56.41-.87.59-2.5-1.45-3.89-3.48-4.66-5.2-.08-.17-.15-.33-.21-.49-.53-1.35-.69-2.44-.73-2.79.72-.32,1.47-.54,2.2-.66.09-.02.18-.03.27-.04.03.18.07.5.16.91.37,1.71,1.48,5.03,4.61,6.92-.23.26-.49.51-.78.75h0ZM63.23,16.63c-.04.5-.16.99-.36,1.45-3.14-1.89-3.92-5.62-4.08-6.61,1.24.09,2.32.49,2.96,1.18.16.17.31.36.44.55-.44.35-.89.52-1.14.58-.03,0-.08.03-.1.04-.12.08-.15.23-.07.35.05.08.13.11.21.11.03,0,.06,0,.09-.02h0c.21-.06.75-.23,1.28-.65.55.93.83,2,.76,3.01h0Z"/>
      </g>
      <g id="Layer_3" data-name="Layer 3">
        <g>
          <path class="cls-4" d="M89.23,8.02h10.36v7.03c0,1.84-1.49,3.34-3.34,3.34h-3.69c-1.84,0-3.34-1.49-3.34-3.34v-7.03h0Z"/>
          <path class="cls-4" d="M99.73,9.28h2.75v3.7c0,2.34-2.88,1.7-2.88,1.7"/>
          <path class="cls-4" d="M88.83,9.28h-2.75v3.7c0,2.34,2.88,1.7,2.88,1.7"/>
          <line class="cls-4" x1="94.41" y1="18.37" x2="94.41" y2="21.79"/>
          <rect class="cls-4" x="89.95" y="21.79" width="8.93" height="2.82"/>
        </g>
      </g>
    </g>
  </g>
</svg>