<?xml version="1.0" encoding="UTF-8"?>
<svg id="Layer_2" data-name="Layer 2" xmlns="http://www.w3.org/2000/svg" viewBox="0 0 30.29 30.54">
  <defs>
    <style>
      .cls-1 {
        fill: #000;
        stroke-width: 0px;
      }
    </style>
  </defs>
  <g id="Layer_8" data-name="Layer 8">
    <g>
      <path class="cls-1" d="M22.14,30.54h-14c-4.49,0-8.14-3.65-8.14-8.14v-14.25C0,3.65,3.65,0,8.14,0h14c4.49,0,8.14,3.65,8.14,8.14v14.25c0,4.49-3.65,8.14-8.14,8.14ZM8.14,2c-3.39,0-6.14,2.76-6.14,6.14v14.25c0,3.39,2.76,6.14,6.14,6.14h14c3.39,0,6.14-2.76,6.14-6.14v-14.25c0-3.39-2.76-6.14-6.14-6.14h-14Z"/>
      <path class="cls-1" d="M11.34,21.47l-2.15-3.36c-.18-.29-.5-.46-.84-.46h-.78c-.55,0-1-.45-1-1h0c0-.55.46-1.1,1.02-1.1l3.08.02c.34,0,.54.19.73.47l.61,1.1c.4.63.59,1.11.97.47l4.13-7.05c.4-.68,1.39-.65,1.75.05l2.19,4.28c.16.32.48.52.84.54l1.3.07c.55.03.98.5.95,1.05h0c-.03.55-.5.98-1.05.95l-2.45-.13c-.36-.02-.68-.23-.84-.54l-1.05-2.06c-.36-.7-1.35-.73-1.75-.05l-3.94,6.72c-.38.64-1.3.66-1.7.03Z"/>
    </g>
  </g>
</svg>