<?xml version="1.0" encoding="UTF-8"?>
<svg id="Layer_2" data-name="Layer 2" xmlns="http://www.w3.org/2000/svg" viewBox="0 0 175.54 114.8">
  <defs>
    <style>
      .cls-1 {
        fill: #87af1b;
      }

      .cls-1, .cls-2, .cls-3, .cls-4, .cls-5, .cls-6 {
        stroke-width: 0px;
      }

      .cls-2 {
        fill: #f4ebd9;
      }

      .cls-3 {
        fill: #ffc93d;
      }

      .cls-4 {
        fill: #542909;
      }

      .cls-5 {
        fill: #79c9bc;
      }

      .cls-6 {
        fill: #ffecc2;
      }
    </style>
  </defs>
  <g id="Layer_2-2" data-name="Layer 2">
    <g>
      <path class="cls-1" d="M29.86,37.02l-6.65,45.32c-.89,6.03,3.79,11.44,9.88,11.44h13.3c6.09,0,10.77-5.41,9.88-11.44l-6.65-45.32c-1.67-11.39-18.1-11.39-19.77,0Z"/>
      <path class="cls-1" d="M4.03,57.21L.11,83.9c-.89,6.03,3.79,11.44,9.88,11.44h7.84c6.09,0,10.77-5.41,9.88-11.44l-3.92-26.69c-1.67-11.39-18.1-11.39-19.77,0Z"/>
      <path class="cls-1" d="M81.52,49.96l-3.92,26.69c-.89,6.03,3.79,11.44,9.88,11.44h7.84c6.09,0,10.77-5.41,9.88-11.44l-3.92-26.69c-1.67-11.39-18.1-11.39-19.77,0Z"/>
      <path class="cls-1" d="M135.03,57.21l-3.92,26.69c-.89,6.03,3.79,11.44,9.88,11.44h7.84c6.09,0,10.77-5.41,9.88-11.44l-3.92-26.69c-1.67-11.39-18.1-11.39-19.77,0Z"/>
      <g>
        <rect class="cls-4" x="91.92" y="70.43" width=".52" height="39.97" rx=".26" ry=".26"/>
        <rect class="cls-4" x="89.08" y="68.34" width=".52" height="8.56" rx=".26" ry=".26" transform="translate(203.86 60.8) rotate(135)"/>
        <rect class="cls-4" x="94.76" y="71.89" width=".52" height="8.56" rx=".26" ry=".26" transform="translate(81.69 -44.88) rotate(45)"/>
      </g>
      <g>
        <rect class="cls-4" x="14.9" y="72.85" width=".52" height="39.97" rx=".26" ry=".26"/>
        <rect class="cls-4" x="12.06" y="75.94" width=".52" height="8.56" rx=".26" ry=".26" transform="translate(77.75 128.23) rotate(135)"/>
        <rect class="cls-4" x="17.74" y="85.45" width=".52" height="8.56" rx=".26" ry=".26" transform="translate(68.72 13.55) rotate(45)"/>
        <rect class="cls-4" x="11.58" y="81.97" width=".52" height="9.75" rx=".26" ry=".26" transform="translate(81.61 139.88) rotate(135)"/>
      </g>
      <g>
        <rect class="cls-4" x="145.68" y="72.85" width=".52" height="39.97" rx=".26" ry=".26"/>
        <rect class="cls-4" x="142.84" y="75.94" width=".52" height="8.56" rx=".26" ry=".26" transform="translate(301.01 35.75) rotate(135)"/>
        <rect class="cls-4" x="148.52" y="79.04" width=".52" height="8.56" rx=".26" ry=".26" transform="translate(102.49 -80.8) rotate(45)"/>
        <rect class="cls-4" x="142.35" y="81.97" width=".52" height="9.75" rx=".26" ry=".26" transform="translate(304.87 47.41) rotate(135)"/>
      </g>
      <g>
        <rect class="cls-4" x="40.17" y="49.6" width=".52" height="52.7" rx=".26" ry=".26"/>
        <rect class="cls-4" x="43.27" y="65.11" width=".52" height="8.56" rx=".26" ry=".26" transform="translate(61.82 -10.46) rotate(45)"/>
        <rect class="cls-4" x="37.33" y="55.41" width=".52" height="8.56" rx=".26" ry=".26" transform="translate(106.38 75.32) rotate(135)"/>
        <rect class="cls-4" x="37.33" y="68.57" width=".52" height="8.56" rx=".26" ry=".26" transform="translate(115.68 97.78) rotate(135)"/>
        <rect class="cls-4" x="36.03" y="74.11" width=".52" height="12.22" rx=".26" ry=".26" transform="translate(118.68 111.27) rotate(135)"/>
        <rect class="cls-4" x="43.43" y="82.74" width=".52" height="9.75" rx=".26" ry=".26" transform="translate(74.75 -5.23) rotate(45)"/>
      </g>
      <path class="cls-1" d="M64.48,114.06c1.24-1.41,1.98-3.18,1.98-5.1,0-4.63-4.29-8.39-9.59-8.39-3.47,0-6.5,1.62-8.19,4.03-1.76-1.82-4.38-2.97-7.32-2.97-3.14,0-5.92,1.33-7.67,3.37-1.91-2.66-5.29-4.43-9.14-4.43-5.75,0-10.44,3.93-10.77,8.89-1.1-1.37-2.78-2.24-4.67-2.24-3.31,0-5.99,2.68-5.99,5.99,0,.29.03.57.07.85h61.29Z"/>
      <path class="cls-1" d="M137.91,113.88h7.3c.47-.2.92-.43,1.34-.7.08.24.18.47.28.7h28.68c0-.14.02-.28.02-.42,0-4.1-3.33-7.43-7.43-7.43-1.53,0-2.96.47-4.14,1.26-1.19-3.7-4.66-6.37-8.75-6.37-1.83,0-3.54.54-4.97,1.47-1.26-3.57-4.66-6.13-8.66-6.13-5.08,0-9.2,4.12-9.2,9.2,0,3.77,2.28,7.01,5.53,8.43Z"/>
      <polygon class="cls-6" points="76.33 79.69 54.91 114.8 97.74 114.8 76.33 79.69"/>
      <polygon class="cls-3" points="76.33 85.64 76.33 113.98 89.13 113.98 81.79 101.86 76.33 85.64"/>
      <polygon class="cls-3" points="151.38 114.8 97.74 114.8 76.33 79.69 130.64 79.69 151.38 114.8"/>
      <polygon class="cls-2" points="116.67 85.99 104.61 85.99 102.31 81.25 113.84 81.25 116.67 85.99"/>
      <path class="cls-5" d="M166.54,29.56c-.42-3.05-3.03-5.4-6.2-5.4-2,0-3.78.94-4.93,2.41-.81-2.53-3.17-4.35-5.97-4.35-2.33,0-4.35,1.27-5.43,3.16-1.94-5.33-7.04-9.15-13.05-9.15s-11.42,4.04-13.22,9.62c-1.12-1.04-2.62-1.69-4.27-1.69-2.12,0-4,1.06-5.13,2.68-.73-2.91-3.36-5.08-6.51-5.08-3.71,0-6.72,3.01-6.72,6.72,0,.37.04.73.09,1.08h71.33Z"/>
      <path class="cls-5" d="M40.36,0c-5.88,0-10.92,3.56-13.1,8.64-1.41-1.84-3.62-3.03-6.12-3.03-3.04,0-5.65,1.76-6.91,4.31-.98-2.52-3.43-4.31-6.3-4.31-3.74,0-6.77,3.03-6.77,6.77h53.31c-.92-6.98-6.88-12.37-14.11-12.37Z"/>
    </g>
  </g>
</svg>