<svg width="161" height="276" viewBox="0 0 161 276" fill="none" xmlns="http://www.w3.org/2000/svg">
<g clip-path="url(#clip0_987_4059)">
<path d="M18.3837 43.4184C5.35307 51.1959 2.58652 61.1001 6.50989 72.3857C-2.59189 93.086 -1.73519 101.935 6.50989 101.978C3.1431 122.902 8.74168 128.254 18.3837 126.584C22.6999 141.514 28.4349 146.082 34.9448 144.994C43.2062 158.477 51.1348 165.107 58.3813 157.732C69.513 163.59 79.3241 165.064 87.1327 159.913C99.0228 165.379 107.699 164.302 112.757 155.861C122.645 154.942 130.677 151.026 135.261 141.535C143.517 145.859 161.016 112.688 152.76 108.358C161.95 102.196 163.805 91.3183 156.509 74.5612C159.521 60.4528 156.111 50.3094 147.446 43.4129C146.218 33.1879 141.241 26.4165 132.445 23.1641C124.86 12.1341 117.537 4.40003 111.197 8.83814C99.0065 1.8329 87.9621 -3.36665 84.006 2.61065C69.8295 0.271945 59.2817 0.832147 56.5097 7.59808C44.1502 9.46361 37.9405 14.1954 36.8219 21.304C23.9386 25.2743 18.8202 33.1661 18.3837 43.4184Z" fill="#5484BF"/>
<path d="M80.4973 132.409C108.627 132.409 131.43 109.68 131.43 81.6427C131.43 53.6053 108.627 30.8765 80.4973 30.8765C52.3679 30.8765 29.5645 53.6053 29.5645 81.6427C29.5645 109.68 52.3679 132.409 80.4973 132.409Z" fill="#F9F551"/>
<path d="M80.4972 125.703C104.911 125.703 124.702 105.976 124.702 81.6427C124.702 57.3089 104.911 37.5825 80.4972 37.5825C56.0836 37.5825 36.2925 57.3089 36.2925 81.6427C36.2925 105.976 56.0836 125.703 80.4972 125.703Z" fill="#F5BF49"/>
<path d="M67.4339 67.9693C75.2643 47.8292 83.1001 47.8292 90.9305 67.9693C107.442 65.8699 112.49 69.7152 97.544 83.9323C107.994 107.009 101.413 109.392 82.7891 97.127C69.8348 108.217 60.8968 111.132 65.0821 87.3371C50.9547 77.7484 50.3926 71.0096 67.4284 67.9693H67.4339Z" fill="#F9F551"/>
<path d="M32.0908 161.463C19.0657 193.993 9.88751 224.766 8.65975 251.912C8.13045 264.312 11.8628 264.421 18.46 256.295C24.124 250.356 30.6557 245.004 37.5857 239.93C43.0861 235.883 46.873 235.611 48.4009 240.316C65.7259 278.589 72.6178 291.806 76.4102 251.096C78.7293 220.79 82.4398 193.748 88.966 173.309L95.9179 150.015L45.6944 136.728L32.0908 161.458V161.463Z" fill="#5484BF"/>
<path d="M82.1888 174.674L96.6327 243.791C99.8958 259.324 104.796 254.277 110.356 240.914C120.184 216.749 124.265 217.347 136.259 227.572C155.292 244.466 162.353 244.308 152.427 219.947L124.958 150.112L82.1833 152.19V174.68L82.1888 174.674Z" fill="#5484BF"/>
<path d="M21.3521 253.391C27.1362 214.933 33.7389 178.112 45.4653 151.559H47.9044C37.0183 185.753 29.2152 218.544 25.6793 249.404L21.3467 253.391H21.3521Z" fill="#F9F551"/>
<path d="M55.9694 256.692L70.1131 157.058H74.2766L59.0742 262.952" fill="#F9F551"/>
<path d="M87.2253 178.449L107.486 247.125L110.356 240.914L88.966 173.32L87.2253 178.449Z" fill="#F9F551"/>
<path d="M117.09 153.512L144.455 234.338L149.601 237.749L121.188 153.512C120.571 154.208 119.376 154.371 117.09 153.512Z" fill="#F9F551"/>
</g>
<defs>
<clipPath id="clip0_987_4059">
<rect width="161" height="276" fill="white"/>
</clipPath>
</defs>
</svg>
