<?xml version="1.0" encoding="UTF-8"?>
<svg id="Layer_2" data-name="Layer 2" xmlns="http://www.w3.org/2000/svg" viewBox="0 0 34.28 30.72">
  <defs>
    <style>
      .cls-1 {
        stroke-width: 0px;
      }
    </style>
  </defs>
  <g id="Layer_1-2" data-name="Layer 1">
    <path class="cls-1" d="M34.07,4.1c-.04-.27-.31-.46-.57-.41-.27.04-.46.3-.41.57.61,3.73-.31,5.96-1.5,7.3-.27-.37-.56-.73-.87-1.07-.58-.62-1.33-1.13-2.19-1.54.31-.67.98-2.48.68-5.09-.03-.27-.29-.47-.55-.44-.27.03-.47.28-.44.55.28,2.41-.37,4.08-.61,4.59-1.76-.63-3.88-.86-6.12-.65-.1-1.04-.34-2.05-.71-2.97C19.32,1.36,16.23-.49,12.71.11c-2.08.36-3.68,1.47-4.6,3.09-1.99-.35-3.98.16-5.66,1.54C-.17,6.92-.74,10.16.98,13.22c1.21,2.15,3.53,4.01,6.43,4.83-.86,2.34-1.06,4.78-.54,6.96l-4.1,4.92,6.62-.86c1.02.66,2.42,1.15,4.11,1.42.97.16,2.04.24,3.16.24,4.38,0,9.56-1.22,12.97-3.97,2.58-2.08,4.06-4.72,4.27-7.62.16-2.29-.48-4.68-1.75-6.75,1.43-1.5,2.61-4.03,1.92-8.29ZM12.88,1.1c.39-.07.77-.1,1.14-.1,2.57,0,4.69,1.56,5.81,4.32.34.84.56,1.76.65,2.71-1.74.26-3.51.8-5.2,1.61-.73-1.91-1.97-3.57-3.45-4.72-.87-.68-1.78-1.15-2.71-1.45.79-1.24,2.07-2.09,3.75-2.37ZM1.85,12.73c-1.49-2.64-1.02-5.34,1.24-7.21,1.16-.96,2.47-1.44,3.83-1.44.25,0,.51.04.77.07.33.04.66.12.99.22.87.26,1.73.69,2.56,1.34,1.37,1.07,2.51,2.62,3.17,4.39.08.22.15.44.22.67.03.1.06.2.08.3.38,1.5.4,3.11-.09,4.72-.06.19-.12.37-.19.56-.05.13-.1.25-.15.38-.02.05-.04.11-.07.17-.91.3-1.8.47-2.67.54-.96.08-1.88.04-2.76-.11-.05,0-.09-.01-.14-.02-.29-.05-.57-.12-.84-.19-2.68-.72-4.82-2.41-5.93-4.38ZM13.66,29.5c-2.37-.38-4.07-1.18-4.77-2.26h0c-1.43-2.19-1.8-5.59-.52-8.99.15.03.3.07.46.09.69,3.05,2.65,8.41,7.19,11.37-.83-.03-1.63-.09-2.37-.21ZM19.89,29.51c-4.87-2.99-7.09-7.58-8.1-11.09.95-.09,1.94-.3,2.93-.64l.2-.07.03-.05c1.51,3.43,4.28,7.62,9.35,10.82-1.42.49-2.92.83-4.41,1.03ZM29.01,25.98c-.53.43-1.12.82-1.73,1.17-4.96-2.87-7.72-6.9-9.24-10.32-.15-.33-.29-.66-.41-.98-1.06-2.68-1.36-4.84-1.44-5.54,1.43-.64,2.91-1.07,4.36-1.31.18-.03.36-.05.54-.07.05.36.14.99.32,1.81.74,3.39,2.94,9.98,9.16,13.74-.45.52-.97,1.02-1.55,1.48ZM32.9,19.07c-.07,1-.31,1.96-.71,2.88-6.23-3.75-7.79-11.16-8.09-13.12,2.47.17,4.6.98,5.88,2.35.32.34.61.71.88,1.09-.88.7-1.77,1.03-2.27,1.16-.05.01-.16.05-.2.08-.23.15-.29.46-.14.69.1.15.25.22.42.22.06,0,.12-.01.18-.04h0c.42-.11,1.48-.46,2.55-1.3,1.1,1.85,1.65,3.97,1.51,5.98Z"/>
  </g>
</svg>