<?xml version="1.0" encoding="UTF-8"?>
<svg id="Layer_2" data-name="Layer 2" xmlns="http://www.w3.org/2000/svg" viewBox="0 0 139.01 127.02">
  <defs>
    <style>
      .cls-1 {
        fill: #282828;
        stroke-width: 3px;
      }

      .cls-1, .cls-2, .cls-3, .cls-4 {
        stroke: #000;
        stroke-miterlimit: 10;
      }

      .cls-2 {
        fill: #e1f9ff;
        stroke-width: 4px;
      }

      .cls-5 {
        fill: #f48978;
      }

      .cls-5, .cls-6, .cls-7 {
        stroke-width: 0px;
      }

      .cls-3 {
        fill: #ffe36c;
        stroke-width: 4.26px;
      }

      .cls-6 {
        fill: #000;
      }

      .cls-4 {
        fill: #fff;
        stroke-width: 1.07px;
      }

      .cls-7 {
        fill: #f45858;
      }
    </style>
  </defs>
  <g id="Layer_1-2" data-name="Layer 1">
    <g>
      <path class="cls-2" d="M10.62,53.66C-6.85,8.32,29.12-15.14,63.62,20.03L10.62,53.66Z"/>
      <path class="cls-2" d="M32.9,34.68C54.9-13.65,107.57-6.93,109.71,45.32l-76.82-10.64Z"/>
      <path class="cls-3" d="M2.13,77.22c0,28.39,24.9,47.67,55.97,47.67,31.07,0,67.11-19.28,67.11-47.67S90.05,28.58,58.99,28.58c-31.07,0-56.86,20.25-56.86,48.64Z"/>
      <circle class="cls-5" cx="15.41" cy="82.72" r="4.33"/>
      <circle class="cls-5" cx="63.32" cy="83.59" r="4.33"/>
      <path class="cls-6" d="M62.84,12.46c-3.63,0-6.58,2.95-6.58,6.58,0,.86.17,1.69.47,2.44-3.53,1.72-10.21,14.24-10.68,21.51-.35,5.47,5.42,4.39,5.81,1.35,1.8-9.53,4.41-15.18,8.76-19.11.69.25,1.43.39,2.21.39,3.63,0,6.58-2.95,6.58-6.58s-2.95-6.58-6.58-6.58ZM56.86,21.78c.32.7.76,1.34,1.29,1.88-.68-.53-1.24-1.18-1.29-1.88Z"/>
      <path class="cls-6" d="M13.4,19.04c0,3.63,2.95,6.58,6.58,6.58.78,0,1.52-.14,2.21-.39,4.36,3.94,6.96,9.58,8.76,19.11.39,3.04,6.16,4.12,5.81-1.35-.47-7.27-7.15-19.79-10.68-21.51.3-.76.47-1.58.47-2.44,0-3.63-2.95-6.58-6.58-6.58s-6.58,2.95-6.58,6.58ZM24.66,23.66c.53-.54.97-1.18,1.29-1.88-.05.7-.61,1.34-1.29,1.88Z"/>
      <path class="cls-6" d="M99.06,40.11c8.37,5.59,12.87,59.29,3.42,73.25,0,0,9.52-5.2,13.57-11.19,2.85-3.96,4.02-39.15-4.32-53.59l-12.67-8.47Z"/>
      <path class="cls-6" d="M79.04,32.32c10.02,6.78,15.42,71.89,4.09,88.82,0,0,11.08-.52,15.93-7.79,3.41-4.8,5.06-59.11-4.94-76.62l-15.09-4.41Z"/>
      <path class="cls-6" d="M124.54,67c2.86,5.79,1.75,14.69.61,15.83,0,0,11.27-5.7,12.61-6.55s1.96-4.42,0-5.53l-13.22-3.74Z"/>
      <g>
        <path class="cls-1" d="M40.75,93.76c6.35,0,11.88-2.47,14.71-6.11,1.76-2.27.14-5.57-2.73-5.57h-23.96c-2.87,0-4.49,3.31-2.73,5.57,2.83,3.64,8.36,6.11,14.71,6.11Z"/>
        <path class="cls-7" d="M31.41,90.11c-1.85-.94,17.23-6.53,21.41-1.93-2.48,2.88-12.67,6.38-21.41,1.93Z"/>
      </g>
      <path class="cls-6" d="M46.04,69.16c0-8.39,13.56-9.7,13.56,0,0,4.2-3.7,3.93-3.76,0,0-3.67-6.75-4.2-6.75,0s-3.04,4.46-3.04,0Z"/>
      <path class="cls-6" d="M21.28,69.61c0-8.95,13.56-10.34,13.56,0,0,4.47-3.7,4.19-3.76,0,0-3.91-6.75-4.47-6.75,0s-3.04,4.75-3.04,0Z"/>
      <path class="cls-4" d="M32.9,82.72h13.54c0,5.26-13.29,6.26-13.54,0Z"/>
    </g>
  </g>
</svg>