<?xml version="1.0" encoding="UTF-8"?>
<svg id="Layer_2" data-name="Layer 2" xmlns="http://www.w3.org/2000/svg" viewBox="0 0 350.09 247.96">
  <defs>
    <style>
      .cls-1 {
        fill: #7f4913;
      }

      .cls-1, .cls-2, .cls-3, .cls-4, .cls-5, .cls-6, .cls-7 {
        stroke-width: 0px;
      }

      .cls-2 {
        fill: #ffd073;
      }

      .cls-3 {
        fill: #edb426;
      }

      .cls-4 {
        fill: #fff8a1;
      }

      .cls-5 {
        fill: #f4ebab;
      }

      .cls-8 {
        fill: #493911;
        stroke-width: 1.14px;
      }

      .cls-8, .cls-9, .cls-10 {
        stroke: #896919;
        stroke-miterlimit: 10;
      }

      .cls-6 {
        fill: #fff380;
      }

      .cls-7 {
        fill: #c18708;
      }

      .cls-9 {
        fill: #ddb143;
        stroke-width: .99px;
      }

      .cls-10 {
        fill: #d3a524;
      }
    </style>
  </defs>
  <g id="Bottom_Part" data-name="Bottom Part">
    <g>
      <g>
        <g>
          <path class="cls-10" d="M122.5,106.25c2.6-3.64,9-7,13-7,0,0,19.86,1,23.43,0,1.57,0,11.57,3,11.57,8-.22,7-53,6-48-1Z"/>
          <path class="cls-10" d="M121.5,107.25s-14,7-9,11c10,11,66,7,71-2,1-3-5-9-13-10-1,2.88-44,6-49,1Z"/>
          <path class="cls-10" d="M111.5,117.25c-.95-2.85-15,9-12,14,9,17,87.5,10.5,96-2,3-1-2.5-11.5-12-13-1.5,2.5-69,10-72,1Z"/>
          <path class="cls-10" d="M99.5,131.25c-5.35-4.51-12,18-8,19,20,21,97,18,112.5.4,3.5-3.4,0-20.9-8-21.9-13,12-77.5,18.5-96.5,2.5Z"/>
          <path class="cls-10" d="M91.5,150.25c-2.76-2.63-9.5,20.5-2.5,28.5,19,23,90,19,118,4,4-2,5.36-25.5-2-32-20,18-92,20-113.5-.5Z"/>
          <path class="cls-10" d="M89,178.75c-3.6-4.58-3,22,3.5,25.5,26,19,94,12,108,3,5,0,10-24,6.5-24.5-7,8-96,24-118-4Z"/>
          <path class="cls-10" d="M93.66,205.06c-3.78-3.63,4.84,21.19,14.84,23.19,16.5,7.5,61,8,77,1,3,0,17-15,15-22-14.5,11.5-90.5,13.5-106.84-2.19Z"/>
          <path class="cls-10" d="M107,228.75c-5.1-2.12,14,16,26,15,5,1,21,3,31.81,0,3.19,0,20.19-9,20.69-14.5-15.5,9.5-66.5,4.5-78.5-.5Z"/>
          <path class="cls-10" d="M133,243.75c-3.16,0,17.03,7.17,23.51,1.58,0,0-20.51-1.58-23.51-1.58Z"/>
        </g>
        <ellipse class="cls-8" cx="163" cy="176.25" rx="22" ry="22.5"/>
        <path class="cls-9" d="M179.39,161.88c2.84,4.12,4.22,9.14,3.55,14.35-1.51,11.7-12.8,19.9-25.22,18.3-5.35-.69-10.03-3.08-13.51-6.51,3.53,5.13,9.32,8.85,16.21,9.74,12.42,1.6,23.71-6.59,25.22-18.3.86-6.67-1.65-13.03-6.25-17.57Z"/>
      </g>
      <path class="cls-1" d="M.18,79.54c69.77-25.58,69.09,5.55,134.82,23.21,9,2,41,1,61-11,12-6,55-32,58-33,40-21,81-3,87-7,0,0-17,0-26-4-16-1-20-3-50,3-3,1-38,17-42,18,13-12,27-21,22-50-2,28-8,39-32,54-40,25-63,24-101,4C92.1,63.18,55.01,25.88,0,27.03"/>
      <g>
        <path class="cls-5" d="M234.4,13.25c-1-1-9-6-13,1l-1,1,1,8s11,9,19,6c0,0,.92-2.76,2.76-2.99.08,0,.16-.01.24-.01,2,0-9-13-9-13Z"/>
        <path class="cls-6" d="M249.4,25.25c1,1,10-23-5-25,0,0-3-1-5,1,0,0-7,2-6,12,0,0,6.49,11,9.74,12,0,0,4.26-2,6.26,0Z"/>
        <path class="cls-4" d="M250.4,25.25c0-8,9-26,13-22h3s1,0,1,2c0,0,1,0,1,1h3v9s-12,12-18,13l-3-3Z"/>
        <path class="cls-6" d="M270.4,15.25l4.45.21v7.32s-1.45,11.47-5.45,12.47-9,0-10,11c0,0-2,3-4,0l-7-4-9,4v-2.65s-11,.65-11,.65c0,0-1-4-7-5,0,0-12-11-3-16,0,0,18.47-.06,21,5h6s25-13,25-13Z"/>
        <ellipse class="cls-3" cx="246.03" cy="28.95" rx="6.06" ry="4.67" transform="translate(2.73 75.57) rotate(-17.56)"/>
        <circle class="cls-7" cx="242.4" cy="32.25" r="1"/>
        <circle class="cls-7" cx="248.4" cy="27.25" r="1"/>
        <circle class="cls-2" cx="244.4" cy="31.25" r="1"/>
        <circle class="cls-2" cx="247.4" cy="26.25" r="1"/>
        <circle class="cls-2" cx="245.9" cy="32.75" r=".5"/>
        <circle class="cls-2" cx="248.9" cy="31.75" r=".5"/>
        <circle class="cls-2" cx="244.9" cy="25.75" r=".5"/>
        <circle class="cls-7" cx="241.9" cy="29.75" r=".5"/>
        <circle class="cls-7" cx="249.9" cy="29.75" r=".5"/>
        <circle class="cls-7" cx="248.9" cy="29.75" r=".5"/>
      </g>
      <g>
        <path class="cls-5" d="M150.16,82.5c-.06-.41-1.03-2.97-3.19-2.06l-.41.06-1.18,2.03s.97,4.02,3.35,4.73c0,0,.7-.48,1.16-.21.02.01.04.02.06.04.46.35.2-4.6.2-4.6Z"/>
        <path class="cls-6" d="M151.52,87.92c.06.41,6.36-3.57,3.24-6.67,0,0-.52-.76-1.33-.65,0,0-1.97-.77-3.5,1.72,0,0-.43,3.69.15,4.49,0,0,1.34.29,1.45,1.1Z"/>
        <path class="cls-4" d="M151.75,88.1c1.41-1.85,6.66-4.44,6.88-2.81l.7.53s.23.18-.12.64c0,0,.23.18.06.41l.7.53-1.58,2.09s-4.89.67-6.46-.15l-.17-1.22Z"/>
        <path class="cls-6" d="M158.15,89.3l.99.83-1.29,1.7s-2.35,2.4-3.46,1.93-2.09-1.58-4.25.79c0,0-.99.34-.93-.7l-.92-2.16-2.79-.66.47-.61-2.66-1.79s.47-1.1-.74-2.39c0,0-.85-4.66,2.12-4.24,0,0,4.29,3.24,3.99,4.85l1.39,1.06,8.08,1.39Z"/>
        <ellipse class="cls-3" cx="150.09" cy="88.19" rx="1.36" ry="1.76" transform="translate(16.57 199.89) rotate(-70.35)"/>
        <circle class="cls-7" cx="148.67" cy="88.31" r=".29"/>
        <circle class="cls-7" cx="150.94" cy="88.21" r=".29"/>
        <circle class="cls-2" cx="149.31" cy="88.43" r=".29"/>
        <circle class="cls-2" cx="150.88" cy="87.8" r=".29"/>
        <circle class="cls-2" cx="149.39" cy="89.04" r=".15"/>
        <circle class="cls-2" cx="150.26" cy="89.34" r=".15"/>
        <circle class="cls-2" cx="150.39" cy="87.25" r=".15"/>
        <circle class="cls-7" cx="148.99" cy="87.64" r=".15"/>
        <circle class="cls-7" cx="150.85" cy="89.05" r=".15"/>
        <circle class="cls-7" cx="150.61" cy="88.88" r=".15"/>
      </g>
      <g>
        <path class="cls-5" d="M224.58,77.13c.26-.11,1.81-1.19.83-2.47l-.11-.26-1.55-.44s-2.52,1.33-2.59,3.03c0,0,.44.38.34.74,0,.02,0,.03-.02.05-.16.37,3.1-.65,3.1-.65Z"/>
        <path class="cls-6" d="M221.2,78.96c-.26.11,3.46,3.64,5,1.03,0,0,.42-.48.21-1,0,0,.18-1.45-1.74-2.04,0,0-2.53.34-2.97.86,0,0,.04.94-.49,1.15Z"/>
        <path class="cls-4" d="M221.12,79.14c1.47.62,4.09,3.69,3.04,4.11l-.23.55s-.08.18-.45.03c0,0-.08.18-.26.11l-.23.55-1.66-.7s-1.28-3.15-.99-4.33l.79-.32Z"/>
        <path class="cls-6" d="M221.41,83.61l-.39.8-1.35-.57s-2-1.16-1.87-1.98.7-1.66-1.25-2.7c0,0-.4-.6.31-.74l1.28-.98-.04-1.97.49.21.74-2.08s.82.13,1.47-.9c0,0,2.96-1.35,3.18.69,0,0-1.43,3.41-2.56,3.48l-.47,1.11.45,5.62Z"/>
        <ellipse class="cls-3" cx="220.78" cy="78.05" rx="1.21" ry=".94" transform="translate(122.41 290.55) rotate(-84.63)"/>
        <circle class="cls-7" cx="220.46" cy="77.12" r=".2"/>
        <circle class="cls-7" cx="220.91" cy="78.62" r=".2"/>
        <circle class="cls-2" cx="220.49" cy="77.57" r=".2"/>
        <circle class="cls-2" cx="221.17" cy="78.51" r=".2"/>
        <circle class="cls-2" cx="220.09" cy="77.73" r=".1"/>
        <circle class="cls-2" cx="220.04" cy="78.36" r=".1"/>
        <circle class="cls-2" cx="221.46" cy="78.09" r=".1"/>
        <circle class="cls-7" cx="220.96" cy="77.22" r=".1"/>
        <circle class="cls-7" cx="220.33" cy="78.7" r=".1"/>
        <circle class="cls-7" cx="220.41" cy="78.51" r=".1"/>
      </g>
      <g>
        <path class="cls-5" d="M79.4,85.43c-.07.41.12,3.14,2.45,2.9l.41.07,1.72-1.6s.25-4.13-1.82-5.5c0,0-.81.25-1.17-.14-.02-.02-.03-.04-.04-.05-.34-.47-1.53,4.34-1.53,4.34Z"/>
        <path class="cls-6" d="M79.68,79.85c.07-.41-7.13,1.56-5.04,5.44,0,0,.28.88,1.09,1.01,0,0,1.66,1.31,3.85-.63,0,0,1.49-3.4,1.17-4.34,0,0-1.2-.66-1.07-1.48Z"/>
        <path class="cls-4" d="M79.51,79.62c-1.89,1.36-7.67,2.31-7.4.68l-.51-.71s-.17-.24.3-.58c0,0-.17-.24.07-.41l-.51-.71,2.12-1.53s4.87.79,6.13,2.03l-.2,1.22Z"/>
        <path class="cls-6" d="M73.74,76.6l-.71-1.09,1.73-1.25s2.95-1.61,3.87-.84,1.53,2.12,4.3.49c0,0,1.05-.04.68.94l.25,2.33,2.48,1.44-.62.45,2.03,2.48s-.77.92.01,2.5c0,0-.55,4.7-3.26,3.43,0,0-3.16-4.35-2.4-5.8l-1.02-1.42-7.32-3.68Z"/>
        <ellipse class="cls-3" cx="81.13" cy="80.02" rx="1.36" ry="1.76" transform="translate(-31.48 97.42) rotate(-53.39)"/>
        <circle class="cls-7" cx="82.52" cy="80.31" r=".29"/>
        <circle class="cls-7" cx="80.32" cy="79.75" r=".29"/>
        <circle class="cls-2" cx="81.95" cy="80.01" r=".29"/>
        <circle class="cls-2" cx="80.26" cy="80.15" r=".29"/>
        <circle class="cls-2" cx="82.05" cy="79.4" r=".15"/>
        <circle class="cls-2" cx="81.3" cy="78.86" r=".15"/>
        <circle class="cls-2" cx="80.56" cy="80.83" r=".15"/>
        <circle class="cls-7" cx="82.02" cy="80.85" r=".15"/>
        <circle class="cls-7" cx="80.66" cy="78.97" r=".15"/>
        <circle class="cls-7" cx="80.83" cy="79.2" r=".15"/>
      </g>
      <g>
        <path class="cls-5" d="M59.57,40.92c-.3-.41-2.87-2.59-4.65-.32l-.41.3-.06,2.88s3.43,3.76,6.41,3.11c0,0,.47-.93,1.13-.91.03,0,.06,0,.09,0,.71.1-2.51-5.07-2.51-5.07Z"/>
        <path class="cls-6" d="M64.25,45.95c.3.41,4.74-7.62-.47-9.11,0,0-1.01-.51-1.82.09,0,0-2.58.34-2.75,3.94,0,0,1.72,4.23,2.82,4.76,0,0,1.61-.49,2.21.33Z"/>
        <path class="cls-4" d="M64.61,46c.42-2.83,4.54-8.74,5.75-7.11l1.06.16s.35.05.25.76c0,0,.35.05.3.41l1.06.16-.47,3.19s-4.87,3.62-7.05,3.66l-.91-1.22Z"/>
        <path class="cls-6" d="M72.21,43.51l1.56.31-.38,2.59s-1.11,3.99-2.58,4.13-3.19-.47-4.11,3.37c0,0-.86.96-1.42-.21l-2.27-1.78-3.39.95.14-.94-3.93-.34s-.15-1.47-2.22-2.13c0,0-3.68-4.52-.23-5.82,0,0,6.54.94,7.17,2.86l2.12.31,9.53-3.3Z"/>
        <ellipse class="cls-3" cx="62.87" cy="47.09" rx="2.17" ry="1.67" transform="translate(-6.71 10.64) rotate(-9.19)"/>
        <circle class="cls-7" cx="61.41" cy="48.07" r=".36"/>
        <circle class="cls-7" cx="63.79" cy="46.61" r=".36"/>
        <circle class="cls-2" cx="62.17" cy="47.82" r=".36"/>
        <circle class="cls-2" cx="63.49" cy="46.2" r=".36"/>
        <circle class="cls-2" cx="62.62" cy="48.43" r=".18"/>
        <circle class="cls-2" cx="63.74" cy="48.23" r=".18"/>
        <circle class="cls-2" cx="62.63" cy="45.9" r=".18"/>
        <circle class="cls-7" cx="61.36" cy="47.15" r=".18"/>
        <circle class="cls-7" cx="64.19" cy="47.57" r=".18"/>
        <circle class="cls-7" cx="63.84" cy="47.52" r=".18"/>
      </g>
      <g>
        <path class="cls-5" d="M343.45,45.44c.92-.14,7.12.33,6.51,5.6l.14.92-3.65,3.85s-9.35.48-12.42-4.23c0,0,.59-1.82-.3-2.66-.04-.04-.08-.07-.12-.1-1.06-.78,9.85-3.39,9.85-3.39Z"/>
        <path class="cls-6" d="M330.81,45.96c-.92.14,3.67-16.1,12.4-11.31,0,0,1.98.64,2.26,2.48,0,0,2.93,3.79-1.5,8.71,0,0-7.73,3.3-9.85,2.57,0,0-1.48-2.72-3.32-2.44Z"/>
        <path class="cls-4" d="M330.28,45.57c3.12-4.24,5.37-17.3,1.68-16.74l-1.59-1.17s-.53-.39-1.31.67c0,0-.53-.39-.92.14l-1.59-1.17-3.51,4.77s1.69,11.05,4.48,13.92l2.76-.42Z"/>
        <path class="cls-6" d="M323.57,32.46l-2.44-1.62-2.85,3.88s-3.7,6.65-1.97,8.74,4.77,3.51,1.01,9.74c0,0-.11,2.37,2.12,1.56l5.27.61,3.21,5.63,1.03-1.4,5.58,4.63s2.09-1.73,5.66.08c0,0,10.66-1.15,7.83-7.32,0,0-9.78-7.24-13.09-5.54l-3.18-2.34-8.19-16.65Z"/>
        <ellipse class="cls-3" cx="331.15" cy="49.23" rx="3.08" ry="3.99" transform="translate(34.62 204.65) rotate(-36.12)"/>
        <circle class="cls-7" cx="331.79" cy="52.4" r=".66"/>
        <circle class="cls-7" cx="330.56" cy="47.41" r=".66"/>
        <circle class="cls-2" cx="331.12" cy="51.09" r=".66"/>
        <circle class="cls-2" cx="331.48" cy="47.27" r=".66"/>
        <circle class="cls-2" cx="329.74" cy="51.3" r=".33"/>
        <circle class="cls-2" cx="328.54" cy="49.6" r=".33"/>
        <circle class="cls-2" cx="333" cy="47.98" r=".33"/>
        <circle class="cls-7" cx="333.03" cy="51.27" r=".33"/>
        <circle class="cls-7" cx="328.79" cy="48.15" r=".33"/>
        <circle class="cls-7" cx="329.32" cy="48.54" r=".33"/>
      </g>
      <g>
        <path class="cls-5" d="M304.76,40.29c-.06-.42.15-3.26,2.56-2.98l.42-.06,1.76,1.67s.22,4.28-1.94,5.68c0,0-.83-.27-1.22.14-.02.02-.03.04-.05.06-.36.49-1.55-4.51-1.55-4.51Z"/>
        <path class="cls-6" d="M305,46.08c.06.42-7.37-1.68-5.18-5.68,0,0,.29-.91,1.14-1.04,0,0,1.74-1.34,3.98.69,0,0,1.51,3.54,1.17,4.51,0,0-1.25.68-1.12,1.52Z"/>
        <path class="cls-4" d="M304.82,46.32c-1.94-1.43-7.92-2.46-7.66-.77l-.54.73s-.18.24.31.6c0,0-.18.24.06.42l-.54.73,2.19,1.61s5.06-.77,6.37-2.05l-.19-1.26Z"/>
        <path class="cls-6" d="M298.82,49.39l-.74,1.12,1.78,1.31s3.04,1.7,4,.9,1.61-2.19,4.46-.46c0,0,1.09.05.71-.97l.28-2.41,2.58-1.47-.64-.47,2.12-2.56s-.79-.96.04-2.59c0,0-.53-4.88-3.35-3.58,0,0-3.31,4.47-2.53,5.99l-1.07,1.46-7.62,3.75Z"/>
        <ellipse class="cls-3" cx="306.5" cy="45.92" rx="1.83" ry="1.41" transform="translate(31.83 189.48) rotate(-36.12)"/>
        <circle class="cls-7" cx="307.95" cy="45.63" r=".3"/>
        <circle class="cls-7" cx="305.66" cy="46.19" r=".3"/>
        <circle class="cls-2" cx="307.35" cy="45.93" r=".3"/>
        <circle class="cls-2" cx="305.6" cy="45.77" r=".3"/>
        <circle class="cls-2" cx="307.45" cy="46.57" r=".15"/>
        <circle class="cls-2" cx="306.67" cy="47.12" r=".15"/>
        <circle class="cls-2" cx="305.93" cy="45.07" r=".15"/>
        <circle class="cls-7" cx="307.43" cy="45.06" r=".15"/>
        <circle class="cls-7" cx="306" cy="47" r=".15"/>
        <circle class="cls-7" cx="306.18" cy="46.76" r=".15"/>
      </g>
    </g>
  </g>
</svg>