<?xml version="1.0" encoding="UTF-8"?>
<svg id="Layer_2" data-name="Layer 2" xmlns="http://www.w3.org/2000/svg" viewBox="0 0 30.5 30.5">
  <defs>
    <style>
      .cls-1 {
        stroke-width: 0px;
      }
    </style>
  </defs>
  <g id="Layer_2-2" data-name="Layer 2">
    <g id="Layer_1-2" data-name="Layer 1-2">
      <path class="cls-1" d="m15.25,0C6.83,0,0,6.83,0,15.25s6.83,15.25,15.25,15.25,15.25-6.83,15.25-15.25S23.67,0,15.25,0Zm9.06,16.92l-5.65,5.65c-.68.68-1.8.68-2.48,0l-.2-.2c-.68-.68-.68-1.8,0-2.48l2.46-2.46H7.16c-.96,0-1.75-.79-1.75-1.75s.79-1.75,1.75-1.75h11.39l-2.57-2.57c-.68-.68-.68-1.8,0-2.48l.2-.2c.68-.68,1.8-.68,2.48,0l5.65,5.65c.35.35.52.83.51,1.29.01.47-.15.94-.51,1.29h0Z"/>
    </g>
  </g>
</svg>