<svg width="23" height="23" viewBox="0 0 23 23" fill="none" xmlns="http://www.w3.org/2000/svg">
<g clip-path="url(#clip0_590_3860)">
<path d="M13.1428 11.5C13.1506 9.50823 13.6755 7.55262 14.6661 5.8247C15.6568 4.09678 17.0793 2.65578 18.7943 1.64284C17.5225 1.11633 16.162 0.837526 14.7857 0.821411C11.9536 0.821411 9.23741 1.94647 7.2348 3.9491C5.23218 5.95171 4.10712 8.66784 4.10712 11.5C4.10712 14.3321 5.23218 17.0482 7.2348 19.0509C9.23741 21.0535 11.9536 22.1786 14.7857 22.1786C16.1786 22.1687 17.5565 21.8897 18.8435 21.3571C17.1194 20.3504 15.6871 18.9121 14.6875 17.1836C13.688 15.4553 13.1556 13.4965 13.1428 11.5Z" stroke="black" stroke-width="2" stroke-linecap="round" stroke-linejoin="round"/>
</g>
<defs>
<clipPath id="clip0_590_3860">
<rect width="23" height="23" fill="white"/>
</clipPath>
</defs>
</svg>
