<svg width="24" height="36" viewBox="0 0 24 36" fill="none" xmlns="http://www.w3.org/2000/svg">
<path d="M6.61 28.16V29H0.82V28.16L2.47 27.95C2.69 27.91 2.85 27.87 2.95 27.83C3.05 27.77 3.14 27.64 3.22 27.44C3.3 27.24 3.41 26.92 3.55 26.48L9.28 8.6H11.86L17.62 26.48C17.76 26.92 17.87 27.24 17.95 27.44C18.03 27.64 18.12 27.77 18.22 27.83C18.34 27.87 18.5 27.91 18.7 27.95L20.35 28.16V29H12.07V28.16L13.72 27.95C14.04 27.91 14.21 27.83 14.23 27.71C14.27 27.57 14.18 27.16 13.96 26.48L12.82 22.76H5.89L4.72 26.48C4.52 27.16 4.43 27.57 4.45 27.71C4.47 27.83 4.64 27.91 4.96 27.95L6.61 28.16ZM6.25 21.71H12.49L9.4 11.75L6.25 21.71Z" fill="black"/>
<path d="M21 9.5V17M21 17L19 15.5M21 17L23 15.5M19 10.5L21 9L23 10.5" stroke="black"/>
</svg>
