<?xml version="1.0" encoding="UTF-8"?>
<svg id="Layer_2" data-name="Layer 2" xmlns="http://www.w3.org/2000/svg" viewBox="0 0 57.71 57.71">
  <defs>
    <style>
      .cls-1 {
        fill: none;
        stroke: #231f20;
        stroke-miterlimit: 10;
        stroke-width: 2px;
      }

      .cls-2 {
        fill: #86b03f;
      }

      .cls-2, .cls-3, .cls-4 {
        stroke-width: 0px;
      }

      .cls-3 {
        fill: #dfe9a0;
      }

      .cls-4 {
        fill: #618339;
      }
    </style>
  </defs>
  <g id="Layer_2-2" data-name="Layer 2">
    <g>
      <g>
        <rect class="cls-2" x="9.45" y="9.45" width="38.81" height="38.81" transform="translate(28.86 -11.95) rotate(45)"/>
        <rect class="cls-2" x="19.45" y="19.45" width="18.81" height="18.81" transform="translate(69.66 28.86) rotate(135)"/>
      </g>
      <rect class="cls-3" x="19.37" y="19.25" width="19.15" height="18.91" transform="translate(-11.82 28.87) rotate(-45)"/>
      <polygon class="cls-4" points="1.15 28.86 15.9 28.86 28.87 41.83 28.87 56.59 1.15 28.86"/>
      <polygon class="cls-4" points="56.66 28.7 41.91 28.7 28.94 15.73 28.94 .97 56.66 28.7"/>
      <g>
        <rect class="cls-1" x="9.45" y="9.45" width="38.81" height="38.81" transform="translate(28.86 -11.95) rotate(45)"/>
        <rect class="cls-1" x="19.45" y="19.45" width="18.81" height="18.81" transform="translate(69.66 28.86) rotate(135)"/>
        <polyline class="cls-1" points="28.86 15.56 28.86 15.56 28.86 1.41"/>
        <line class="cls-1" x1="42.16" y1="28.86" x2="56.3" y2="28.86"/>
        <line class="cls-1" x1="28.86" y1="42.16" x2="28.86" y2="56.3"/>
        <line class="cls-1" x1="1.41" y1="28.86" x2="15.56" y2="28.86"/>
      </g>
    </g>
  </g>
</svg>