<?xml version="1.0" encoding="UTF-8"?>
<svg id="Layer_2" data-name="Layer 2" xmlns="http://www.w3.org/2000/svg" viewBox="0 0 109.11 141.26">
  <defs>
    <style>
      .cls-1 {
        fill: #86b03f;
        stroke-width: 0px;
      }
    </style>
  </defs>
  <g id="Layer_2-2" data-name="Layer 2">
    <path class="cls-1" d="M102.64,57.85h-3.77v-13.96C98.87,19.69,79.18,0,54.98,0S11.08,19.69,11.08,43.89v13.96h-4.62c-3.57,0-6.47,2.9-6.47,6.47v70.47c0,3.57,2.9,6.47,6.47,6.47h96.17c3.57,0,6.47-2.9,6.47-6.47v-70.47c0-3.57-2.9-6.47-6.47-6.47ZM63.49,99.82v15.05c0,4.7-3.81,8.51-8.51,8.51s-8.51-3.81-8.51-8.51v-15.05c-2.31-2.14-3.74-5.12-3.74-8.44,0-6.49,5.49-11.74,12.26-11.74s12.26,5.26,12.26,11.74c0,3.32-1.44,6.3-3.74,8.44ZM80.87,57.85H29.08v-13.96c0-14.28,11.62-25.89,25.89-25.89s25.89,11.62,25.89,25.89v13.96Z"/>
  </g>
</svg>