<?xml version="1.0" encoding="UTF-8"?>
<svg id="Layer_2" data-name="Layer 2" xmlns="http://www.w3.org/2000/svg" viewBox="0 0 24.84 18.4">
  <defs>
    <style>
      .cls-1 {
        stroke-width: 0px;
      }

      .cls-1, .cls-2 {
        fill: none;
      }

      .cls-3 {
        fill: #fff;
      }

      .cls-3, .cls-2 {
        stroke: #231f20;
        stroke-linecap: round;
        stroke-miterlimit: 10;
      }
    </style>
  </defs>
  <g id="Layer_1-2" data-name="Layer 1">
    <g>
      <g>
        <line class="cls-3" x1="6.64" y1="10.62" x2="18.03" y2="10.62"/>
        <line class="cls-2" x1="6.74" y1="13.55" x2="18.13" y2="13.55"/>
        <path class="cls-1" d="M6.63,7.7c0-6.24,11.38-6.24,11.38,0,0,0-11.42-.03-11.38,0Z"/>
        <line class="cls-2" x1="6.64" y1="10.62" x2="18.03" y2="10.62"/>
        <path class="cls-1" d="M24.8,14.01c.52,2.61-4.52,4.01-4.5-3.4,0,0,3.98.79,4.5,3.4"/>
        <path class="cls-1" d="M.04,13.76c-.52,2.61,4.52,4.01,4.5-3.4,0,0-3.98.79-4.5,3.4"/>
        <polyline class="cls-1" points="11.44 16.41 12.56 18.4 13.67 16.38"/>
        <path class="cls-1" d="M9.84,2.46S9.31.23,7.67.12c-.93-.06-2.04.69-1.65,2.15"/>
        <path class="cls-1" d="M14,2.33S14.53.11,16.16,0c.93-.06,2.04.69,1.65,2.15"/>
      </g>
      <line class="cls-2" x1="6.6" y1="7.7" x2="17.98" y2="7.7"/>
    </g>
  </g>
</svg>