<?xml version="1.0" encoding="UTF-8"?>
<svg id="Layer_2" data-name="Layer 2" xmlns="http://www.w3.org/2000/svg" xmlns:xlink="http://www.w3.org/1999/xlink" viewBox="0 0 170.09 176.94">
  <defs>
    <style>
      .cls-1 {
        isolation: isolate;
        opacity: .44;
      }

      .cls-1, .cls-2, .cls-3, .cls-4, .cls-5, .cls-6, .cls-7, .cls-8, .cls-9, .cls-10, .cls-11, .cls-12, .cls-13, .cls-14, .cls-15, .cls-16, .cls-17, .cls-18, .cls-19, .cls-20, .cls-21 {
        stroke-width: 0px;
      }

      .cls-1, .cls-9 {
        fill: #fef5e6;
      }

      .cls-2 {
        fill: #efc9c5;
      }

      .cls-3, .cls-22 {
        fill: none;
      }

      .cls-4 {
        fill: #998b65;
      }

      .cls-5 {
        fill: #f48978;
      }

      .cls-6 {
        fill: #896f4a;
      }

      .cls-7 {
        fill: #544839;
      }

      .cls-8 {
        fill: #87af1b;
      }

      .cls-10 {
        fill: #363231;
      }

      .cls-11 {
        fill: #843f00;
      }

      .cls-12 {
        fill: #546614;
      }

      .cls-13 {
        fill: #e0f4f1;
      }

      .cls-14 {
        fill: #fffc8f;
      }

      .cls-15 {
        fill: #d36c62;
      }

      .cls-16 {
        fill: #2c2f34;
      }

      .cls-17 {
        fill: #ffc93d;
      }

      .cls-23 {
        fill: url(#New_Pattern);
        stroke-width: 1.18px;
      }

      .cls-23, .cls-24 {
        stroke: #c66300;
      }

      .cls-23, .cls-24, .cls-22 {
        stroke-miterlimit: 10;
      }

      .cls-24 {
        fill: #fd8;
        stroke-width: 1.28px;
      }

      .cls-18 {
        fill: #383838;
      }

      .cls-22 {
        stroke: #6b321f;
        stroke-linecap: round;
        stroke-width: 2px;
      }

      .cls-19 {
        fill: #e2d9ca;
      }

      .cls-20 {
        fill: #bc985e;
      }

      .cls-21 {
        fill: #bf6258;
      }
    </style>
    <pattern id="New_Pattern" data-name="New Pattern" x="0" y="0" width="14.2" height="12.3" patternTransform="translate(-2466.78 -15411.39) scale(.88 -.97)" patternUnits="userSpaceOnUse" viewBox="0 0 14.2 12.3">
      <g>
        <rect class="cls-3" width="14.2" height="12.3"/>
        <g>
          <rect class="cls-3" width="14.2" height="12.3"/>
          <polygon class="cls-24" points="16.05 .14 12.35 .14 10.5 -3.07 12.35 -6.28 16.05 -6.28 17.9 -3.07 16.05 .14"/>
          <polygon class="cls-24" points="1.85 .14 -1.85 .14 -3.7 -3.07 -1.85 -6.28 1.85 -6.28 3.7 -3.07 1.85 .14"/>
          <polygon class="cls-24" points="16.05 6.28 12.35 6.28 10.5 3.08 12.35 -.13 16.05 -.13 17.9 3.08 16.05 6.28"/>
          <polygon class="cls-24" points="8.95 3.21 5.25 3.21 3.4 0 5.25 -3.2 8.95 -3.2 10.8 0 8.95 3.21"/>
          <polygon class="cls-24" points="1.85 6.28 -1.85 6.28 -3.7 3.08 -1.85 -.13 1.85 -.13 3.7 3.08 1.85 6.28"/>
          <polygon class="cls-24" points="16.05 12.43 12.35 12.43 10.5 9.23 12.35 6.02 16.05 6.02 17.9 9.23 16.05 12.43"/>
          <polygon class="cls-24" points="8.95 9.36 5.25 9.36 3.4 6.15 5.25 2.94 8.95 2.94 10.8 6.15 8.95 9.36"/>
          <polygon class="cls-24" points="1.85 12.43 -1.85 12.43 -3.7 9.23 -1.85 6.02 1.85 6.02 3.7 9.23 1.85 12.43"/>
          <polygon class="cls-24" points="16.05 18.58 12.35 18.58 10.5 15.37 12.35 12.17 16.05 12.17 17.9 15.37 16.05 18.58"/>
          <polygon class="cls-24" points="8.95 15.51 5.25 15.51 3.4 12.3 5.25 9.09 8.95 9.09 10.8 12.3 8.95 15.51"/>
          <polygon class="cls-24" points="1.85 18.58 -1.85 18.58 -3.7 15.37 -1.85 12.17 1.85 12.17 3.7 15.37 1.85 18.58"/>
        </g>
      </g>
    </pattern>
  </defs>
  <g id="Layer_1-2" data-name="Layer 1">
    <g>
      <path class="cls-13" d="M165.47,45.75h-56.65s.85-4.96,11.59-5.22c0,0-1.19-6.68,14.48-6.75,0,0,1.79-5.59,10.48-5.59,4.96,0,8.87.85,11.97,2.18C144.51,12.01,123.22,0,99.12,0c-20.52,0-39.01,8.72-51.97,22.64,2.19,2.14,1.99,6.52,1.99,6.52,15.68.17,14.48,18.06,14.48,18.06,10.74.68,11.59,13.97,11.59,13.97H28.83c-.44,3.19-.67,6.45-.67,9.77,0,39.19,31.77,70.96,70.96,70.96s70.96-31.77,70.96-70.96c0-8.88-1.64-17.38-4.62-25.22h0Z"/>
      <polyline class="cls-17" points="155.11 155.49 155.12 157.7 107.58 157.7"/>
      <ellipse class="cls-17" cx="99.31" cy="172.65" rx="46.5" ry="4.3"/>
      <g>
        <rect class="cls-4" x="152.94" y="144.25" width="2.17" height="13.41"/>
        <path class="cls-8" d="M145.22,139.89v-10.65c0-8.28,2.45-16.36,7.03-23.25h0c.97-1.46,3.13-1.44,4.08.04l.11.18c4.33,6.76,6.64,14.62,6.64,22.65v11.05c.02.23.03.45.03.69,0,4.95-4.01,8.96-8.96,8.96s-8.96-4.01-8.96-8.96c0-.23,0-.46.03-.69h0Z"/>
        <path class="cls-12" d="M145.26,139.87v-10.65c0-8.28,2.45-16.36,7.03-23.25h0c.42-.64,1.07-.99,1.74-1.07v44.62c-4.87-.08-8.8-4.06-8.8-8.95,0-.23,0-.46.03-.69h0Z"/>
      </g>
      <polygon class="cls-21" points="100.65 166.37 105.76 166.37 103.05 170.95 100.67 170.95 100.65 166.37"/>
      <polygon class="cls-17" points="47.54 157.07 0 157.07 47.54 152.81 47.54 157.07"/>
      <g>
        <rect class="cls-4" x="44.3" y="137.15" width="3.24" height="19.81"/>
        <path class="cls-8" d="M32.78,130.65v-15.9c0-12.35,3.65-24.42,10.49-34.7h0c1.45-2.18,4.67-2.16,6.09.05l.17.26c6.46,10.08,9.9,21.81,9.9,33.79v16.48c.02.34.04.68.04,1.02,0,7.38-5.98,13.36-13.36,13.36s-13.36-5.98-13.36-13.36c0-.34.01-.69.04-1.02h0Z"/>
        <path class="cls-12" d="M32.84,130.61v-15.9c0-12.35,3.65-24.42,10.49-34.7h0c.63-.95,1.6-1.48,2.6-1.6v66.58c-7.27-.12-13.13-6.06-13.13-13.36,0-.34.01-.69.04-1.02Z"/>
      </g>
      <polyline class="cls-17" points="31.68 159.05 31.69 161.25 1.13 161.25"/>
      <rect class="cls-4" x="29.5" y="147.81" width="2.17" height="13.42"/>
      <path class="cls-8" d="M21.79,143.45v-10.65c0-8.28,2.45-16.36,7.03-23.25h0c.97-1.46,3.13-1.44,4.08.04l.11.18c4.33,6.76,6.64,14.62,6.64,22.65v11.05c.02.23.03.45.03.69,0,4.95-4.01,8.96-8.96,8.96s-8.96-4.01-8.96-8.96c0-.23,0-.46.03-.69h0Z"/>
      <path class="cls-12" d="M21.83,143.43v-10.65c0-8.28,2.45-16.36,7.03-23.25h0c.42-.64,1.07-.99,1.74-1.07v44.62c-4.87-.08-8.8-4.06-8.8-8.95,0-.23,0-.46.03-.69Z"/>
      <polygon class="cls-20" points="71.34 85.9 71.91 83.47 76.56 85.27 76.19 88.66 71.17 86.6 71.34 85.9"/>
      <path class="cls-6" d="M71.93,83.57s.58,3.08,4.55,2.35c1.01-.44-2.35-3.18-4.55-2.35Z"/>
      <path class="cls-6" d="M73.32,80.15c0,1.36-.77,2.86-1.81,3.59-.39.28-1.15-.38-1.6-.22-.55.2-.79.78-1.34.78-.49,0-1.59-.29-1.96-.78-.3-.41.12-1-.18-1.26-.96-.83-1.11-.75-1.11-2.23,0-.56.69-.73,1.03-1.11.4-.46-.01-1.11.36-1.55.72-.85.69-1.74,1.81-1.74,2.2,0,4.8,2.03,4.8,4.53h0Z"/>
      <path class="cls-7" d="M80.16,69.98s4.89-.68,4.77,3.78c-.12,4.45-.28,6.84-3.98,6.2-3.7-.64-.79-9.98-.79-9.98h0Z"/>
      <path class="cls-7" d="M70.22,78.2s-.35,1.29-.74,1.46-.93.36-.68.78.41,1.36.33,1.55.76,1.16,1.02,1.28,2.2.3,2.2.3l-2.14-5.36h0Z"/>
      <path class="cls-10" d="M66.04,165.84s-.12,2.27-.24,4.41-.08,3.58-.08,3.58h8.51s.28-2.23-.2-2.94-2.31-2.55-2.38-4.85c-.04-.56-5.61-.2-5.61-.2h0Z"/>
      <path class="cls-10" d="M81.27,166.03s.16,2.31-.04,2.82-.52.6-.52,5.01h13.68s.32-2.74-.32-3.1-5.96-2.27-6.56-2.9-.28-3.06-.28-3.06l-5.96,1.23h0Z"/>
      <path class="cls-20" d="M71.19,74.11s-2.66,8.36,2.23,10.61c4.89,2.25,7.26,2.43,8.35-.04,1.09-2.47,2.98-11.06-.52-13.03-3.99-2.25-9.3.18-10.06,2.47h0Z"/>
      <path class="cls-9" d="M64.09,111.08s-1.67,3.26-1.51,10.97c.16,7.72.87,15.43.64,17.82s-.4,12.65.32,15.43c-.08,3.1-.4,9.31,2.38,10.74s5.96.72,6.92-.87c.95-1.59,1.99-12.25.95-17.5-1.03-5.25,1.19-8.35.87-15.59,1.91,8.19,1.43,9.07,1.51,10.74s1.11,4.93,1.27,6.92c.16,1.99-.64,15.75,3.34,16.54s7.72.4,7.79-3.1c.08-3.5,1.11-14.32-.16-17.18-.79-1.91-.24-1.43-.48-3.74s-1.03-2.46-1.11-4.22c-.08-1.75.08-9.54-.56-12.01-.64-2.46-5.62-13.89-5.7-16.67-.08-2.78,1.71-6.72,1.71-9.74,4.08,3.21,19.9,8.68,22.2,8.04,2.31-.64,7.47-.48,7.87-2.86.4-2.38.56-6.44-3.34-6.76-3.9-.32-12.17.08-12.17.08,0,0-8.19-7.79-15.59-8.75-3.82-.24-4.16-.49-4.16-.49v-1.19l-6.64-1.6-.72,1.67s-6.38-1.49-8.05.1c-1.67,1.59,3.74,19.48,2.38,23.22h0Z"/>
      <path class="cls-19" d="M68.36,95.17s-1.67,8.27-1.19,9.7,2.38,7.5,2.15,11c-.24,3.5-2.7,12.01-2.31,15.43s.72,10.34.64,12.01-2.15,8.27-1.27,11.05-1.35,11.61,1.79,12.52c-3.62-.36-4.65-3.46-4.57-7.83-.04-2.59.03-3.66.03-3.66,0,0-.62-.99-.5-9.98.12-8.99-.12-16.74-.4-21.15s.16-7.68.16-7.68c0,0,1.67-6.76,1.19-9.86s-.87-8.83-.87-8.83l5.17-2.73h0Z"/>
      <path class="cls-9" d="M61.79,87.99s-4.67,3.16-6.42,10.94c-1.75,7.78-4.48,11.08-.26,14.58,4.22,3.5,11.56,7.89,12.59,6.27s3.1-4.79,1.75-7.18-3.82-3.33-4.69-3.33-2.46-1.88-2.46-1.88c0,0,6.68-9.23,6.12-13.68-.56-4.44-2.6-7.18-6.63-5.73h0Z"/>
      <path class="cls-19" d="M76,87.47s-2.23,11.13-1.63,14.95c.6,3.82,2.86,11.77,3.06,15.39-.2-7.6-2.74-11.41-2.7-17.65.04-6.24,1.27-12.69,1.27-12.69h0Z"/>
      <path class="cls-19" d="M74.75,132.18s2.74,4.29,3.38,8.99c.64,4.69,1.11,6.88,1.47,8.27s-.99,11.49,1.27,16.94c-1.31-6-.99-11.73-.87-16.38,0-1.15-.2-.95-.68-3.86-.48-2.9-.99-6.04-1.43-7.68s-1.55-4.53-3.14-6.28Z"/>
      <path class="cls-6" d="M81.15,75.12c-1.22,1.7-2.82,2.81-6.88,3.85-4.06,1.03-4.53-.83-4.53-.83,0,0-2.48-11.76,11.46-8.31,2.55.56-.05,5.3-.05,5.3h0Z"/>
      <ellipse class="cls-20" cx="70.86" cy="79.29" rx="1.54" ry="2.21"/>
      <ellipse class="cls-7" cx="79.08" cy="78.99" rx="1.03" ry=".38" transform="translate(-6.25 151.18) rotate(-85.2)"/>
      <ellipse class="cls-7" cx="82.13" cy="78.99" rx="1.03" ry=".38" transform="translate(-3.45 154.22) rotate(-85.2)"/>
      <polygon class="cls-10" points="71.71 115.61 71.4 126.01 62.7 125.85 62.78 125.33 71.05 125.57 71.42 115.62 71.71 115.61"/>
      <path class="cls-1" d="M62.69,73.14s-2.95,5.58-1.92,8.36-.87,2.94-.08,5.88c.79,2.94,23.14,5.73,28.39,3.98,1.67-.56-.65-5.16-.33-6.51s3.59-6.02,3.03-8.58l-29.1-3.13h0Z"/>
      <path class="cls-9" d="M62.69,73.14s12.37,8.03,29.1,3.13l-6.31-3.97s-1.7-6.31-7.26-6.63c-5.57-.33-7.61,4.58-7.61,4.58l-7.92,2.9h0Z"/>
      <path class="cls-19" d="M70.6,70.32s5.47,3.41,14.88,2.06c-.17-.65-.26-.72-.26-.72,0,0-7.31.92-14.4-1.87l-.22.54Z"/>
      <path class="cls-22" d="M65.61,122.33s.11-3.98,3.98-3.98,4.03,4.03,4.03,4.03v51"/>
      <path class="cls-10" d="M108.32,104.01s1.26,1.79,2.61,2.42,1.67.42,1.74.15-1.34-.98-1.3-1.27-.12-1.44-.66-1.55-2.38.25-2.38.25h0Z"/>
      <polygon class="cls-10" points="80.58 115.32 81.95 125.63 85.86 124.54 85.73 124.04 82.25 125.16 80.88 115.31 80.58 115.32"/>
      <polygon class="cls-10" points="76.56 99.1 80.99 99.63 80.99 99.97 76.59 99.39 76.56 99.1"/>
      <polygon class="cls-10" points="68.37 97.9 72.8 98.43 72.8 98.78 68.4 98.2 68.37 97.9"/>
      <polygon class="cls-10" points="72.7 171.96 71.74 173.64 71.74 174.69 75.55 174.69 75.55 173.78 74.55 171.92 72.7 171.96"/>
      <path class="cls-19" d="M82.29,99.62s0-1.31-.16-1.83c.93,1.43,15.36,8.48,19.99,9.67,0,0-12.25-2.48-19.82-7.84h0Z"/>
      <path class="cls-16" d="M65.75,119.59c-.42-1.74.4-3.37,3.35-3.26,2.94.11,3.09,2.19,3.05,2.66s-.67,1.39-1.3,1.46-.85-.52-1.07-.38-.04.73-.57.93c-.53.2-.84-.18-1.05-.1s.01.53-.4.66-1.42.41-2-1.97h0Z"/>
      <rect class="cls-23" x="103.18" y="106" width="26.07" height="11.98"/>
      <polygon class="cls-11" points="129.25 114.92 128.83 114.92 128.38 114.23 127.55 114.22 127.08 113.52 126.11 113.46 125.73 112.87 124.69 112.89 124.35 113.52 123.23 113.53 122.83 114.23 121.93 114.25 121.58 114.88 121.13 114.88 121.07 115.54 129.25 115.53 129.25 114.92"/>
      <polygon class="cls-11" points="103.16 114.22 103.62 114.22 103.96 113.59 104.87 113.57 105.26 112.87 106.38 112.85 106.72 112.23 107.76 112.21 108.14 112.8 109.11 112.85 109.58 113.55 110.41 113.57 110.87 114.25 111.83 114.25 112.23 113.55 113.27 113.55 113.63 112.87 114.79 112.87 115.13 112.27 116.07 112.27 116.43 111.55 116.07 110.9 116.4 110.22 117.51 110.22 117.85 110.85 118.88 110.85 119.22 111.51 120.2 111.51 120.67 112.27 120.24 112.95 120.58 113.59 120.24 114.25 120.71 114.86 103.1 114.88 103.16 114.22"/>
      <path class="cls-10" d="M108.14,102c.85-1.27,5.57-1.31,8.27,1.23.36.34,2.38,2.94,1.7,3.41-.35.24-.63-.11-.63-.11,0,0,.23.71-.39.57-.54-.13-2.75-2.13-2.75-2.13,0,0,1.89,1.52,1.95,1.93.04.3-.35.5-.59.32s-2.42-1.74-2.77-1.93-6.87-.19-4.8-3.29h0Z"/>
      <rect class="cls-5" x="100.66" y="114.68" width="32.04" height="51.46"/>
      <rect class="cls-2" x="100.35" y="139.12" width="32.72" height="22.04"/>
      <rect class="cls-2" x="100.35" y="115.71" width="32.72" height="22.04"/>
      <path class="cls-15" d="M113.11,126.67h7.12c.45,0,.82.37.82.82h0c0,.45-.37.82-.82.82h-7.12c-.45,0-.82-.37-.82-.82h0c0-.45.37-.82.82-.82Z"/>
      <path class="cls-15" d="M113.11,149.85h7.12c.45,0,.82.37.82.82h0c0,.45-.37.82-.82.82h-7.12c-.45,0-.82-.37-.82-.82h0c0-.45.37-.82.82-.82Z"/>
      <polygon class="cls-21" points="132.67 166.37 127.23 166.37 130.12 170.95 132.65 170.95 132.67 166.37"/>
      <polygon class="cls-15" points="100.68 163.9 100.68 166.89 132.69 166.89 132.69 163.99 100.68 163.9"/>
      <rect class="cls-3" x="101.53" y="105.56" width="29.8" height="14.2"/>
      <g>
        <path class="cls-19" d="M123.01,76.28s.46-.59.44-1.23c-.04-1.46-2.14-1.94-3.21-.44-.9,1.25,1.87,1.62,2.77,1.67h0Z"/>
        <ellipse class="cls-14" cx="123.27" cy="76.91" rx="2.53" ry="1.88"/>
        <path class="cls-18" d="M121.96,75.32s1.34-.1.75,3.44c.48.09,1.31-.04,1.41-.08s.33-1.69.16-2.31-.49-1.21-1.06-1.35c-.26-.01-.99.11-1.26.29h0Z"/>
        <path class="cls-9" d="M124.56,76.45s.46-.59.44-1.23c-.04-1.46-2.14-1.94-3.21-.44-.9,1.25,1.87,1.62,2.77,1.67h0Z"/>
        <path class="cls-18" d="M121.15,76.73l-1.8.6,1.89.27s.36-.45-.08-.87h0Z"/>
      </g>
    </g>
  </g>
</svg>