<?xml version="1.0" encoding="UTF-8"?>
<svg id="Layer_2" data-name="Layer 2" xmlns="http://www.w3.org/2000/svg" viewBox="0 0 45.58 49.13">
  <defs>
    <style>
      .cls-1 {
        fill: none;
        stroke: #000;
        stroke-miterlimit: 10;
        stroke-width: 3px;
      }
    </style>
  </defs>
  <g id="Layer_7" data-name="Layer 7">
    <path class="cls-1" d="M1.5,24.47s-.01-3.67,2.4-6.1L19.69,3.38c2.3-2.58,4.09-2.42,6.28,0l15.83,15.11c1.58,1.89,2.16,2.76,2.28,4.92v19.91c0,2.5,0,4.32-4.59,4.32h-6.93c-2.16,0-3.72-.6-3.96-4.32l-.12-9.36c.13-2.91-1.51-3.48-2.62-3.45l-5.54-.15c-1.56,0-3.36.72-3.36,3.96l-.24,9.48c-.12,1.8-.96,3.6-4.44,3.84H4.26c-2.13,0-2.77-.86-2.76-4.44v-18.73Z"/>
  </g>
</svg>