<svg width="40" height="40" viewBox="0 0 40 40" fill="none" xmlns="http://www.w3.org/2000/svg">
<path d="M12.0691 15.4875C12.469 10.9128 15.5532 7.10762 19.7376 5.65602C19.4392 6.15074 19.1692 6.69829 18.9279 7.28449C18.0309 9.46283 17.4625 12.3353 17.3617 15.4875H12.0691ZM23.5 3C16.0441 3 10 9.04416 10 16.5C10 23.9558 16.0441 30 23.5 30C30.9558 30 37 23.9558 37 16.5C37 9.04416 30.9558 3 23.5 3ZM23.5 5.025C23.8528 5.025 24.2836 5.19439 24.776 5.70011C25.2714 6.20902 25.7642 6.99809 26.1996 8.05551C26.9799 9.95048 27.5118 12.5511 27.6122 15.4875H19.3878C19.4881 12.5511 20.0201 9.95048 20.8003 8.05551C21.2357 6.99809 21.7286 6.20902 22.224 5.70011C22.7163 5.19439 23.1472 5.025 23.5 5.025ZM29.6383 15.4875C29.5375 12.3353 28.9691 9.46283 28.0721 7.28449C27.8307 6.69828 27.5608 6.15074 27.2624 5.65602C31.4468 7.10762 34.531 10.9128 34.9309 15.4875H29.6383ZM27.6122 17.5125C27.5118 20.4489 26.9799 23.0495 26.1996 24.9445C25.7642 26.0019 25.2714 26.791 24.776 27.2999C24.2836 27.8056 23.8528 27.975 23.5 27.975C23.1472 27.975 22.7163 27.8056 22.224 27.2999C21.7286 26.791 21.2357 26.0019 20.8003 24.9445C20.0201 23.0495 19.4881 20.4489 19.3878 17.5125H27.6122ZM27.2624 27.344C27.5608 26.8493 27.8307 26.3017 28.0721 25.7155C28.9691 23.5372 29.5375 20.6647 29.6383 17.5125H34.9309C34.531 22.0872 31.4468 25.8924 27.2624 27.344ZM19.7376 27.344C15.5532 25.8924 12.469 22.0872 12.0691 17.5125H17.3617C17.4625 20.6647 18.0309 23.5372 18.9279 25.7155C19.1692 26.3017 19.4392 26.8493 19.7376 27.344Z" fill="black"/>
</svg>
