<?xml version="1.0" encoding="UTF-8"?>
<svg id="Layer_2" data-name="Layer 2" xmlns="http://www.w3.org/2000/svg" viewBox="0 0 37.02 33.49">
  <defs>
    <style>
      .cls-1 {
        fill: #000;
        stroke-width: 0px;
      }
    </style>
  </defs>
  <g id="Layer_8" data-name="Layer 8">
    <path class="cls-1" d="M36.75,4.27c-1-.51-2.04-.26-2.66-.02v-1.03l-.14-.14c-.08-.08-.75-.73-2.26-.2V.17l-.46-.04c-5.76-.44-11.39,5.23-12.74,6.69-.84-1.32-3.18-3.15-5.4-4.49C11.27,1.25,7.91-.49,5.83.13l-.36.11v2.54c-1.3-.29-2.06-.23-2.43.19-.2.23-.23.51-.19.72v.32c-.72-.16-2.03-.35-2.68.21l-.17.15v25.24l.59-.11c3.02-.58,12.56.63,16.08,1.78l.58.43c.13.1.24.21.34.34l1.4,1.44,1.29-1.31.11-.13c.09-.13.2-.24.33-.34h0c4.53-1.93,14.65-2.68,15.53-2.15l.76.45V4.41l-.27-.14ZM31.69,23.87V3.95c.75-.35,1.19-.3,1.4-.25v22.21c-4.73.38-6.16.51-10.26,3.07l-1.77.14c2.94-2.69,8.75-5.25,10.14-5.25h.5ZM30.57,1.11s.08,0,.11,0v21.81c-2.45.42-8.65,3.43-11.15,6.31h-.18s-.29-21.55-.29-21.55c.87-.96,6.2-6.57,11.51-6.57ZM6.48,1.02c1.3-.15,3.54.64,6.09,2.18,2.91,1.75,5.1,3.78,5.25,4.51l.17.84.09-.02.28,20.69-.31-.02c-2.56-3.46-8.3-5.52-11.57-6V1.02ZM3.86,3.62c.16-.03.6-.07,1.62.18v20.28l.45.05c2.85.31,8.05,2.15,10.71,4.96l-1.13-.09c-3.38-1.39-8.46-3.09-11.34-3.09-.11,0-.21,0-.31,0V3.62ZM1,28.44V4.9c.39-.11,1.19-.02,1.86.15v22.03l.59-.11c2.2-.39,7.38,1.26,11.01,2.69l.07.05c-4.34-.96-10.78-1.54-13.53-1.28ZM36.02,28.48c-2.29-.37-8.25.22-12.7,1.37,3.91-2.45,5.24-2.57,9.89-2.94l.88-.07V5.34c.2-.11,1.1-.55,1.93-.29v23.43Z"/>
  </g>
</svg>