<?xml version="1.0" encoding="UTF-8"?>
<svg id="Layer_2" data-name="Layer 2" xmlns="http://www.w3.org/2000/svg" viewBox="0 0 137.86 105.66">
  <defs>
    <style>
      .cls-1 {
        fill: #f4b84a;
      }

      .cls-1, .cls-2, .cls-3, .cls-4, .cls-5, .cls-6 {
        stroke-width: 0px;
      }

      .cls-2 {
        fill: #87af1b;
      }

      .cls-3 {
        fill: #f68e73;
      }

      .cls-4 {
        fill: #4e2149;
      }

      .cls-5 {
        fill: #bf2e11;
      }

      .cls-6 {
        fill: #fff;
      }
    </style>
  </defs>
  <g id="Layer_2-2" data-name="Layer 2">
    <g>
      <path class="cls-2" d="M68.48,21.69c-.84-1.19-27.32-2.1-28.78-1.69-.93-1.66,2.52-7.92,3.67-9.45,4.02-11.64-21.79-16.29-21.59,0,.91,3.21,4.85,5.11,4.34,9.45-3.87-.44-23.79,1.34-24.65,1.69-1.71,5.01-2.18,52.58,0,60.99,2.23,1.59,22.27,3.08,24.53,2.26-10.46-15.79.15-18.5,6.32-19.13,3.72-.09,16.9,1.24,6.97,19.03,0,1.66,26.27-.57,29.19-2.11,1.38-1.63,2.2-20.59,2.2-22.94-3.9-4.58-11.42,6.26-18.02,2.43-3.78-2.19-6.47-9.13-4.97-13.24,6.02-16.45,16.77.63,22.99-4.25.27-1.45-.8-21.06-2.2-23.02Z"/>
      <path class="cls-1" d="M68.48,21.69c-.7-1.06,53.78-3.78,67.15,0,1.05,1.49,2.2,20.49,2.2,22.78-6.28,2.3-13.77-9.83-20.53,1.24-1.15,2.58-3.29,9.2,2.77,14.8,7.68,5.7,12.61-5.12,17.76-2.29.29,1.43-1.05,22.82-2.2,24.35-2.1,1.15-21.39,3.3-26.07,2.84.42,6.51,7.31,9.38,1.78,16.73-.81,1.08-2.04,1.8-3.3,2.28-3.95,1.51-10.27,2.91-14.99-4.09-2.87-7.43,2.94-8.03,3.34-14.92-2.29.02-24.58-1.23-27.9-2.7,1.36-1.38,2.47-21.31,2.2-22.94-4.29-4.62-15,10.54-21.3-1.22-3-4.75-3.26-10.11,1.39-15,5.81-6.59,14.48,5.27,19.91,1.17.04-1.19-.21-20.02-2.2-23.02Z"/>
      <g>
        <rect class="cls-4" x="20.05" y="27.25" width="6.71" height="8.19" rx="3.35" ry="3.35"/>
        <circle class="cls-6" cx="23.4" cy="29.5" r="1.73"/>
        <circle class="cls-6" cx="25.35" cy="31.71" r=".47"/>
      </g>
      <g>
        <rect class="cls-4" x="43.31" y="27.61" width="6.71" height="8.19" rx="3.35" ry="3.35"/>
        <circle class="cls-6" cx="46.66" cy="29.86" r="1.73"/>
        <circle class="cls-6" cx="48.61" cy="32.07" r=".47"/>
      </g>
      <ellipse class="cls-5" cx="16.68" cy="35.81" rx="4.02" ry="2.44"/>
      <ellipse class="cls-5" cx="54.04" cy="35.81" rx="4.02" ry="2.44"/>
      <g>
        <rect class="cls-4" x="87.26" y="27.46" width="6.71" height="8.19" rx="3.35" ry="3.35"/>
        <circle class="cls-6" cx="90.62" cy="29.71" r="1.73"/>
        <circle class="cls-6" cx="92.57" cy="31.91" r=".47"/>
      </g>
      <g>
        <rect class="cls-4" x="110.52" y="27.82" width="6.71" height="8.19" rx="3.35" ry="3.35"/>
        <circle class="cls-6" cx="113.88" cy="30.07" r="1.73"/>
        <circle class="cls-6" cx="115.83" cy="32.27" r=".47"/>
      </g>
      <ellipse class="cls-3" cx="83.9" cy="36.01" rx="4.02" ry="2.44"/>
      <ellipse class="cls-3" cx="121.25" cy="36.01" rx="4.02" ry="2.44"/>
      <path class="cls-4" d="M31.73,33.41c.26,4.57,6.56,4.5,6.56.23,0-.75,1.17-.66,1.17,0,.01,5.77-8.84,5.75-8.84-.2,0-.66,1.08-.64,1.12-.03Z"/>
      <path class="cls-4" d="M106.99,34.41c-1,3.41-2.72,1.4-3.81.05-.31-.39-.9-.39-1.21,0-1.08,1.34-2.81,3.36-3.81-.05-.25-.86-.83-.89-.83,0,0,2.33,2.23,3.93,4.72,1.58.29-.28.76-.28,1.05,0,2.48,2.35,4.72.75,4.72-1.58,0-.89-.58-.86-.83,0Z"/>
    </g>
  </g>
</svg>