<svg width="132" height="133" viewBox="0 0 132 133" fill="none" xmlns="http://www.w3.org/2000/svg">
<g clip-path="url(#clip0_712_3637)">
<path d="M36.3897 6.84013C36.3897 3.06243 33.3238 0 29.5417 0C25.7596 0 22.6936 3.06243 22.6936 6.84013V52.186C22.6936 55.9637 25.7596 59.0261 29.5417 59.0261C33.3238 59.0261 36.3897 55.9637 36.3897 52.186V6.84013Z" fill="#F48978"/>
<path d="M52.2467 36.3475C56.0288 36.3475 59.0948 33.2851 59.0948 29.5074C59.0948 25.7297 56.0288 22.6672 52.2467 22.6672L6.84809 22.6672C3.066 22.6672 7.62939e-06 25.7297 7.62939e-06 29.5074C7.62939e-06 33.2851 3.066 36.3475 6.84809 36.3475H52.2467Z" fill="#F48978"/>
<path d="M125.152 36.3475C128.934 36.3475 132 33.2851 132 29.5074C132 25.7297 128.934 22.6672 125.152 22.6672L79.7533 22.6672C75.9712 22.6672 72.9053 25.7297 72.9053 29.5074C72.9053 33.2851 75.9712 36.3475 79.7533 36.3475H125.152Z" fill="#F48978"/>
<path d="M113.657 125.662C116.331 128.334 120.667 128.334 123.342 125.662C126.016 122.991 126.016 118.66 123.342 115.989L91.2401 83.9246C88.5657 81.2533 84.2297 81.2533 81.5554 83.9246C78.881 86.5958 78.8811 90.9267 81.5554 93.598L113.657 125.662Z" fill="#F48978"/>
<path d="M123.339 93.5973C126.013 90.9261 126.013 86.5952 123.339 83.9239C120.665 81.2527 116.329 81.2527 113.654 83.9239L81.5527 115.988C78.8784 118.66 78.8784 122.99 81.5527 125.662C84.2271 128.333 88.5631 128.333 91.2374 125.662L123.339 93.5973Z" fill="#F48978"/>
<path d="M52.2467 111.635C56.0288 111.635 59.0948 108.572 59.0948 104.794C59.0948 101.017 56.0288 97.9543 52.2467 97.9543H6.8481C3.06601 97.9543 7.62939e-06 101.017 7.62939e-06 104.794C7.62939e-06 108.572 3.06601 111.635 6.8481 111.635H52.2467Z" fill="#F48978"/>
<path d="M29.5417 94.3459C34.4476 94.3459 38.4247 90.3734 38.4247 85.4731C38.4247 80.5728 34.4476 76.6003 29.5417 76.6003C24.6357 76.6003 20.6586 80.5728 20.6586 85.4731C20.6586 90.3734 24.6357 94.3459 29.5417 94.3459Z" fill="#F48978"/>
<path d="M29.5417 133C34.4476 133 38.4247 129.028 38.4247 124.127C38.4247 119.227 34.4476 115.255 29.5417 115.255C24.6357 115.255 20.6586 119.227 20.6586 124.127C20.6586 129.028 24.6357 133 29.5417 133Z" fill="#F48978"/>
</g>
<defs>
<clipPath id="clip0_712_3637">
<rect width="132" height="133" fill="white"/>
</clipPath>
</defs>
</svg>
