<svg width="203" height="150" viewBox="0 0 203 150" fill="none" xmlns="http://www.w3.org/2000/svg">
<path d="M159.035 69.1758H43.9517V143.162H159.035V69.1758Z" fill="#FFC93D"/>
<path d="M159.035 69.1758H43.9517V74.129H159.035V69.1758Z" fill="#E5A31F"/>
<path d="M162.08 62.2335H40.9071V69.1758H162.08V62.2335Z" fill="#F2AE25"/>
<path d="M154.546 45.9958H48.3755L40.868 62.2465H162.054L154.546 45.9958Z" fill="#FFC93D"/>
<path d="M126.455 56.3052H76.4665C75.855 56.3052 75.5167 55.8112 75.6989 55.2132L76.4275 52.8471C76.5967 52.2881 77.2082 51.8461 77.7807 51.8461H125.141C125.714 51.8461 126.325 52.2881 126.494 52.8471L127.223 55.2132C127.405 55.8112 127.067 56.3052 126.455 56.3052Z" fill="#E5A31F"/>
<path d="M101.461 52.4831C110.242 52.4831 117.361 45.3704 117.361 36.5965C117.361 27.8225 110.242 20.7098 101.461 20.7098C92.6798 20.7098 85.5613 27.8225 85.5613 36.5965C85.5613 45.3704 92.6798 52.4831 101.461 52.4831Z" fill="#FFE9C2" stroke="#FEBE51" stroke-width="2" stroke-miterlimit="10"/>
<path d="M100.446 48.934V45.9049C98.7026 45.8789 96.8941 45.3329 95.8401 44.5788L96.5688 42.5638C97.6487 43.2788 99.21 43.8508 100.901 43.8508C103.035 43.8508 104.48 42.6158 104.48 40.8997C104.48 39.1836 103.309 38.2216 101.084 37.3246C98.013 36.1285 96.1264 34.7375 96.1264 32.1243C96.1264 29.5112 97.8959 27.7302 100.667 27.2882V24.259H102.528V27.1711C104.336 27.2362 105.559 27.7172 106.431 28.2242L105.677 30.2133C105.039 29.8493 103.816 29.1862 101.89 29.1862C99.5743 29.1862 98.7026 30.5643 98.7026 31.7733C98.7026 33.3334 99.8216 34.1134 102.437 35.2055C105.533 36.4665 107.095 38.0266 107.095 40.7047C107.095 43.0838 105.442 45.3069 102.346 45.8139V48.934H100.446Z" fill="#FCC050"/>
<path d="M70.4554 30.0442C73.0967 25.9881 81.8011 28.7572 73.6171 38.2865C63.4294 38.0915 63.2342 30.0182 69.6877 29.9792L70.4554 30.0442Z" fill="#A34238"/>
<path d="M69.8309 29.7322C72.4721 25.676 81.1766 28.4452 72.9926 37.9745C62.8048 37.7795 62.6097 29.7062 69.0632 29.6672L69.8309 29.7322Z" fill="#F48978"/>
<path d="M80.8383 1.63819C82.868 -1.46894 89.5298 0.650149 83.2584 7.95644C75.4517 7.81344 75.3086 1.61219 80.2398 1.58619L80.8383 1.63819Z" fill="#A34238"/>
<path d="M80.3569 1.39112C82.3866 -1.71601 89.0483 0.403078 82.777 7.70937C74.9703 7.56636 74.8272 1.36512 79.7584 1.33912L80.3569 1.39112Z" fill="#F48978"/>
<path d="M126.638 12.4676C123.996 8.4114 115.292 11.1805 123.476 20.7099C133.664 20.5149 133.859 12.4416 127.405 12.4026L126.638 12.4676Z" fill="#A34238"/>
<path d="M127.249 12.1555C124.608 8.09938 115.903 10.8685 124.087 20.3979C134.275 20.2029 134.47 12.1295 128.017 12.0905L127.249 12.1555Z" fill="#F48978"/>
<path d="M203 142.369H0V150H203V142.369Z" fill="#A0731A"/>
</svg>
