<?xml version="1.0" encoding="UTF-8"?>
<svg id="Layer_2" data-name="Layer 2" xmlns="http://www.w3.org/2000/svg" viewBox="0 0 154.98 36">
  <defs>
    <style>
      .cls-1 {
        fill: none;
        stroke-width: 2px;
      }

      .cls-1, .cls-2, .cls-3 {
        stroke: #fff;
        stroke-miterlimit: 10;
      }

      .cls-4 {
        fill: #000;
      }

      .cls-4, .cls-5, .cls-6 {
        stroke-width: 0px;
      }

      .cls-5 {
        fill: #ffc93d;
      }

      .cls-2 {
        stroke-width: .5px;
      }

      .cls-2, .cls-6, .cls-3 {
        fill: #fff;
      }
    </style>
  </defs>
  <g id="Layer_1-2" data-name="Layer 1">
    <g>
      <circle class="cls-5" cx="97.98" cy="17.2" r="17.2"/>
      <circle class="cls-5" cx="16.93" cy="19.07" r="16.93"/>
      <circle class="cls-5" cx="57.32" cy="18.13" r="16.82"/>
      <circle class="cls-5" cx="138.11" cy="18.13" r="16.86"/>
      <g id="Layer_7" data-name="Layer 7">
        <path class="cls-1" d="M6.25,17.13s0-1.84,1.2-3.06l7.92-7.52c1.15-1.29,2.05-1.21,3.15,0l7.94,7.58c.79.95,1.08,1.38,1.14,2.47v9.99c0,1.25,0,2.17-2.3,2.17h-3.48c-1.08,0-1.87-.3-1.99-2.17l-.06-4.7c.07-1.46-.76-1.75-1.31-1.73l-2.78-.08c-.78,0-1.69.36-1.69,1.99l-.12,4.76c-.06.9-.48,1.81-2.23,1.93h-4.02c-1.07,0-1.39-.43-1.38-2.23,0,0,0-9.4,0-9.4Z"/>
      </g>
      <g id="Layer_8" data-name="Layer 8">
        <path class="cls-2" d="M67.43,11.44c-.55-.28-1.13-.14-1.47-.01v-.57l-.08-.08s-.42-.4-1.25-.11v-1.5l-.25-.02c-3.19-.24-6.31,2.9-7.06,3.71-.47-.73-1.76-1.75-2.99-2.49-1.01-.6-2.87-1.56-4.02-1.22l-.2.06v1.41c-.72-.16-1.14-.13-1.35.11-.11.13-.13.28-.11.4v.18c-.4-.09-1.12-.19-1.48.12l-.09.08v13.98l.33-.06c1.67-.32,6.96.35,8.91.99l.32.24c.07.06.13.12.19.19l.78.8.71-.73.06-.07c.05-.07.11-.13.18-.19h0c2.51-1.07,8.12-1.48,8.6-1.19l.42.25v-14.18l-.15-.08h0ZM64.63,22.3v-11.04c.42-.19.66-.17.78-.14v12.31c-2.62.21-3.41.28-5.68,1.7l-.98.08c1.63-1.49,4.85-2.91,5.62-2.91h.28,0ZM64.01,9.69h.06v12.08c-1.36.23-4.79,1.9-6.18,3.5h-.1l-.16-11.94c.48-.53,3.44-3.64,6.38-3.64ZM50.66,9.64c.72-.08,1.96.35,3.37,1.21,1.61.97,2.83,2.09,2.91,2.5l.09.47h.05s.16,11.45.16,11.45h-.17c-1.42-1.93-4.6-3.07-6.41-3.34,0,0,0-12.29,0-12.29ZM49.21,11.08c.09-.02.33-.04.9.1v11.24l.25.03c1.58.17,4.46,1.19,5.93,2.75l-.63-.05c-1.87-.77-4.69-1.71-6.28-1.71h-.17s0-12.35,0-12.35ZM47.62,24.83v-13.04c.22-.06.66-.01,1.03.08v12.21l.33-.06c1.22-.22,4.09.7,6.1,1.49l.04.03c-2.4-.53-5.97-.85-7.5-.71h0ZM67.03,24.85c-1.27-.21-4.57.12-7.04.76,2.17-1.36,2.9-1.42,5.48-1.63l.49-.04v-11.91c.11-.06.61-.3,1.07-.16v12.98Z"/>
      </g>
      <g id="Layer_8-2" data-name="Layer 8">
        <g>
          <path class="cls-3" d="M109.2,19.58c-.13-2.08-1.32-3.92-2.44-4.65l-.02.03c.12-1.57-.29-3.46-1.74-5.63-2.36-3.22-6.28-4.75-10.48-4.1-4.06.62-7.37,3.08-8.45,6.25-.68,2-.77,5.15,2.65,8.83.06.06.08.14.08.22v3.79c0,.29.36.44.56.23l2.07-2.18c.1-.1.25-.13.38-.06.36.18.74.33,1.15.44.08.02.15.07.19.15,2.34,4.07,7.45,5.05,11.12,3.66.12-.05.26-.02.35.08l1.54,1.73c.07.08.16.12.26.12.04,0,.08,0,.12-.02.14-.05.23-.17.23-.32l.12-3.25c0-.08.05-.17.11-.23,1.96-1.79,2.29-3.74,2.21-5.07h-.01ZM91.5,21.43l-1.54,1.62c-.2.21-.56.07-.56-.23v-2.67l-.08-.08c-3.38-3.55-3.33-6.53-2.68-8.42.99-2.91,4.2-5.26,7.98-5.85.61-.1,1.2-.14,1.79-.14,3.28,0,6.23,1.43,8.13,4,2.29,3.43,2.19,6.75-.29,9.34-3.09,3.24-9.3,4.5-12.54,2.55,0,0-.2-.12-.2-.12ZM106.42,24.38l-.1.08-.08,2.23c-.01.29-.37.42-.57.2l-1.04-1.16-.2.08c-3.15,1.38-7.62.82-10.1-2.26-.18-.22,0-.56.28-.53,3.42.32,7.6-1.05,10.05-3.62.7-.73,1.51-1.83,1.88-3.27.06-.24.37-.33.55-.15.76.82,1.43,2.15,1.52,3.62.08,1.25-.24,3.08-2.2,4.77h0Z"/>
          <path class="cls-6" d="M95.26,16.05l-.03-.39c-.09-.81.18-1.69.93-2.59.68-.79,1.05-1.37,1.05-2.05,0-.77-.48-1.27-1.42-1.29-.54,0-1.14.18-1.51.46l-.36-.94c.5-.36,1.34-.6,2.14-.6,1.72,0,2.5,1.06,2.5,2.2,0,1.02-.57,1.75-1.29,2.6-.66.78-.89,1.43-.85,2.2l.02.39h-1.18ZM94.93,18.14c0-.55.37-.94.89-.94s.88.39.88.94-.34.93-.89.93-.88-.41-.88-.93Z"/>
        </g>
      </g>
      <g id="Layer_8-3" data-name="Layer 8">
        <g>
          <path class="cls-4" d="M143.46,29.44h-10.37c-3.32,0-6.03-2.7-6.03-6.03v-10.55c0-3.33,2.7-6.03,6.03-6.03h10.37c3.32,0,6.03,2.7,6.03,6.03v10.55c0,3.32-2.7,6.03-6.03,6.03h0ZM133.09,8.31c-2.51,0-4.55,2.04-4.55,4.55v10.55c0,2.51,2.04,4.55,4.55,4.55h10.37c2.51,0,4.55-2.04,4.55-4.55v-10.55c0-2.51-2.04-4.55-4.55-4.55,0,0-10.37,0-10.37,0Z"/>
          <path class="cls-4" d="M135.46,22.72l-1.59-2.49c-.13-.21-.37-.34-.62-.34h-.58c-.41,0-.74-.33-.74-.74h0c0-.41.34-.81.76-.81h2.28c.25.01.4.16.54.36l.45.81c.3.47.44.82.72.35l3.06-5.22c.3-.5,1.03-.48,1.3.04l1.62,3.17c.12.24.36.39.62.4l.96.05c.41.02.73.37.7.78h0c-.02.41-.37.73-.78.7l-1.81-.1c-.27-.01-.5-.17-.62-.4l-.78-1.53c-.27-.52-1-.54-1.3-.04l-2.92,4.98c-.28.47-.96.49-1.26.02h-.01Z"/>
        </g>
      </g>
    </g>
  </g>
</svg>