<svg width="319" height="32" viewBox="0 0 319 32" fill="none" xmlns="http://www.w3.org/2000/svg">
<circle cx="16" cy="16" r="16" fill="#1E3E19"/>
<path d="M10.1667 16.8335L13.5 20.1668L21.8333 11.8335" stroke="white" stroke-width="2" stroke-linecap="round" stroke-linejoin="round"/>
<rect x="32" y="15" width="37" height="2" fill="#FFC93D"/>
<circle cx="85" cy="16" r="16" fill="#1E3E19"/>
<path d="M79.1667 16.8335L82.5 20.1668L90.8333 11.8335" stroke="white" stroke-width="2" stroke-linecap="round" stroke-linejoin="round"/>
<rect x="101" y="15" width="37" height="2" fill="#FFC93D"/>
<circle cx="154" cy="16" r="15" stroke="#FFC93D" stroke-width="2"/>
<circle cx="154" cy="16" r="5" fill="#750800"/>
<rect x="170" y="15" width="37" height="2" fill="#FFC93D"/>
<circle cx="223" cy="16" r="15" stroke="#FFC93D" stroke-width="2"/>
<rect x="239" y="15" width="37" height="2" fill="#FFC93D"/>
<circle cx="292" cy="16" r="15" stroke="#FFC93D" stroke-width="2"/>
<circle cx="154" cy="16" r="16" fill="#1E3E19"/>
<path d="M148.167 16.8335L151.5 20.1668L159.833 11.8335" stroke="white" stroke-width="2" stroke-linecap="round" stroke-linejoin="round"/>
<circle cx="223" cy="16" r="15" stroke="#FFC93D" stroke-width="2"/>
<circle cx="223" cy="16" r="16" fill="#1E3E19"/>
<path d="M217.167 16.8335L220.5 20.1668L228.833 11.8335" stroke="white" stroke-width="2" stroke-linecap="round" stroke-linejoin="round"/>
<rect x="239" y="15" width="37" height="2" fill="#FFC93D"/>
<circle cx="292" cy="17" r="5" fill="#750800"/>
</svg>
