<?xml version="1.0" encoding="UTF-8"?>
<svg id="Layer_2" data-name="Layer 2" xmlns="http://www.w3.org/2000/svg" viewBox="0 0 42.81 42.55">
  <defs>
    <style>
      .cls-1 {
        stroke: #000;
        stroke-miterlimit: 10;
      }

      .cls-1, .cls-2 {
        fill: #000;
      }

      .cls-2 {
        stroke-width: 0px;
      }
    </style>
  </defs>
  <g id="Layer_8" data-name="Layer 8">
    <g>
      <path class="cls-1" d="M42.28,26.27c-.23-3.7-2.35-6.96-4.33-8.27l-.04.06c.22-2.79-.52-6.15-3.1-10.01C30.61,2.33,23.65-.39,16.18.76,8.97,1.87,3.08,6.23,1.17,11.86-.04,15.42-.19,21.01,5.88,27.55c.1.11.15.24.15.39v6.73c0,.52.64.78,1,.4l3.68-3.87c.18-.18.45-.23.67-.11.64.32,1.32.58,2.04.78.14.04.26.13.33.26,4.15,7.24,13.24,8.97,19.77,6.5.22-.08.47-.03.63.15l2.74,3.07c.12.14.29.21.46.21.07,0,.14-.01.21-.04.24-.08.4-.3.41-.56l.22-5.78c0-.15.08-.3.19-.4,3.49-3.18,4.07-6.64,3.92-9.01ZM10.81,29.56l-2.74,2.88c-.36.38-.99.12-.99-.4v-4.74l-.15-.15C.93,20.84,1.02,15.54,2.16,12.19,3.92,7.01,9.62,2.84,16.34,1.8c1.08-.17,2.14-.25,3.18-.25,5.83,0,11.08,2.54,14.44,7.1,4.07,6.1,3.89,12-.51,16.6-5.49,5.75-16.53,7.99-22.28,4.53l-.36-.22ZM37.33,34.8l-.17.15-.15,3.96c-.02.52-.66.75-1.01.36l-1.84-2.06-.35.15c-5.59,2.45-13.54,1.46-17.95-4.02-.32-.39,0-.99.49-.94,6.08.56,13.5-1.87,17.86-6.44,1.24-1.3,2.68-3.26,3.35-5.82.11-.43.66-.58.97-.26,1.35,1.46,2.54,3.82,2.71,6.44.14,2.22-.43,5.48-3.91,8.47Z"/>
      <path class="cls-2" d="M17.49,19.99l-.05-.69c-.16-1.44.32-3,1.65-4.6,1.2-1.41,1.86-2.44,1.86-3.64,0-1.36-.85-2.26-2.52-2.29-.96,0-2.02.32-2.68.82l-.64-1.67c.88-.64,2.39-1.06,3.8-1.06,3.06,0,4.44,1.89,4.44,3.91,0,1.81-1.01,3.11-2.29,4.62-1.17,1.38-1.59,2.55-1.51,3.91l.03.69h-2.07ZM16.91,23.71c0-.98.66-1.67,1.59-1.67s1.57.69,1.57,1.67c0,.93-.61,1.65-1.59,1.65-.93,0-1.57-.72-1.57-1.65Z"/>
    </g>
  </g>
</svg>