<?xml version="1.0" encoding="UTF-8"?>
<svg id="Layer_2" data-name="Layer 2" xmlns="http://www.w3.org/2000/svg" viewBox="0 0 139.01 127.02">
  <defs>
    <style>
      .cls-1 {
        fill: #e1f9ff;
        stroke-width: 4px;
      }

      .cls-1, .cls-2 {
        stroke: #000;
        stroke-miterlimit: 10;
      }

      .cls-3 {
        fill: #f48978;
      }

      .cls-3, .cls-4, .cls-5, .cls-6 {
        stroke-width: 0px;
      }

      .cls-2 {
        fill: #ffe36c;
        stroke-width: 4.26px;
      }

      .cls-4 {
        fill: #000;
      }

      .cls-5 {
        fill: #919191;
      }

      .cls-6 {
        fill: #fff;
      }
    </style>
  </defs>
  <g id="Layer_1-2" data-name="Layer 1">
    <g id="Sad_Beenard" data-name="Sad Beenard">
      <path class="cls-1" d="M10.62,53.66C-6.85,8.32,29.12-15.14,63.62,20.03L10.62,53.66Z"/>
      <path class="cls-1" d="M32.9,34.68C54.9-13.65,107.57-6.93,109.71,45.32l-76.82-10.64Z"/>
      <path class="cls-2" d="M2.13,77.22c0,28.39,24.9,47.67,55.97,47.67,31.07,0,67.11-19.28,67.11-47.67S90.05,28.58,58.99,28.58c-31.07,0-56.86,20.25-56.86,48.64Z"/>
      <circle class="cls-3" cx="15.41" cy="82.72" r="4.33"/>
      <circle class="cls-3" cx="63.32" cy="83.59" r="4.33"/>
      <path class="cls-4" d="M32.92,86.8c-2.26,2.21-4.03,4.38-3.38.82,4.36-8.24,15.03-9.1,19.47,0,1.42,3.48-2.18.65-3.56-1.45-4.48-4.55-9.37-2.45-12.52.63Z"/>
      <path class="cls-4" d="M62.84,12.46c-3.63,0-6.58,2.95-6.58,6.58,0,.86.17,1.69.47,2.44-3.53,1.72-10.21,14.24-10.68,21.51-.35,5.47,5.42,4.39,5.81,1.35,1.8-9.53,4.41-15.18,8.76-19.11.69.25,1.43.39,2.21.39,3.63,0,6.58-2.95,6.58-6.58s-2.95-6.58-6.58-6.58ZM56.86,21.78c.32.7.76,1.34,1.29,1.88-.68-.53-1.24-1.18-1.29-1.88Z"/>
      <path class="cls-4" d="M13.4,19.04c0,3.63,2.95,6.58,6.58,6.58.78,0,1.52-.14,2.21-.39,4.36,3.94,6.96,9.58,8.76,19.11.39,3.04,6.16,4.12,5.81-1.35-.47-7.27-7.15-19.79-10.68-21.51.3-.76.47-1.58.47-2.44,0-3.63-2.95-6.58-6.58-6.58s-6.58,2.95-6.58,6.58ZM24.66,23.66c.53-.54.97-1.18,1.29-1.88-.05.7-.61,1.34-1.29,1.88Z"/>
      <path class="cls-4" d="M31.09,66.6c.33-.37.75-.94.9-1.63.22-1.01-1.33-1.4-1.7-.64-3.52,4.58-4.2,4.84-9.36,5.56-1.14.41-.83,1.89-.4,1.87,0,0,.39.06.92.02,0,.08-.02.16-.02.24,0,4.11,2.57,7.45,5.74,7.45s5.74-3.33,5.74-7.45c0-2.14-.7-4.06-1.81-5.41Z"/>
      <path class="cls-4" d="M46.78,66.4c-.33-.37-.75-.94-.9-1.63-.22-1.01,1.33-1.4,1.7-.64,3.52,4.58,4.2,4.84,9.36,5.56,1.14.41.83,1.89.4,1.87,0,0-.39.06-.92.02,0,.08.02.16.02.24,0,4.11-2.57,7.45-5.74,7.45s-5.74-3.33-5.74-7.45c0-2.14.7-4.06,1.81-5.41Z"/>
      <path class="cls-6" d="M30.11,67.19s-1.7,2.24-3.23,2.92c.59,5.92,6.13,2.76,3.23-2.92Z"/>
      <path class="cls-6" d="M47.78,67.19s1.7,2.24,3.23,2.92c-.59,5.92-6.13,2.76-3.23-2.92Z"/>
      <circle class="cls-5" cx="25.67" cy="71.8" r=".59"/>
      <ellipse class="cls-5" cx="26.52" cy="73.8" rx=".59" ry="1.11"/>
      <circle class="cls-5" cx="51.77" cy="72.54" r=".59"/>
      <ellipse class="cls-5" cx="50.93" cy="74.54" rx=".59" ry="1.11"/>
      <path class="cls-4" d="M99.06,40.11c8.37,5.59,12.87,59.29,3.42,73.25,0,0,9.52-5.2,13.57-11.19,2.85-3.96,4.02-39.15-4.32-53.59l-12.67-8.47Z"/>
      <path class="cls-4" d="M79.04,32.32c10.02,6.78,15.42,71.89,4.09,88.82,0,0,11.08-.52,15.93-7.79,3.41-4.8,5.06-59.11-4.94-76.62l-15.09-4.41Z"/>
      <path class="cls-4" d="M124.54,67c2.86,5.79,1.75,14.69.61,15.83,0,0,11.27-5.7,12.61-6.55s1.96-4.42,0-5.53l-13.22-3.74Z"/>
    </g>
  </g>
</svg>