<svg width="17" height="18" viewBox="0 0 17 18" fill="none" xmlns="http://www.w3.org/2000/svg">
<path d="M6.74667 1.75443C5.40467 1.75443 4.11764 2.30927 3.16871 3.2969C2.21977 4.28452 1.68667 5.62403 1.68667 7.02074C1.68667 8.41745 2.21977 9.75696 3.16871 10.7446C4.11764 11.7322 5.40467 12.287 6.74667 12.287C8.08866 12.287 9.37569 11.7322 10.3246 10.7446C11.2736 9.75696 11.8067 8.41745 11.8067 7.02074C11.8067 5.62403 11.2736 4.28452 10.3246 3.2969C9.37569 2.30927 8.08866 1.75443 6.74667 1.75443ZM4.16744e-08 7.02074C0.000153762 5.90328 0.256557 4.802 0.747901 3.80842C1.23924 2.81483 1.95134 1.95765 2.825 1.3081C3.69866 0.658549 4.70866 0.235395 5.77106 0.073804C6.83346 -0.0877867 7.91757 0.0168529 8.93329 0.379026C9.94902 0.7412 10.867 1.35045 11.611 2.15613C12.355 2.96182 12.9035 3.94068 13.2109 5.01136C13.5183 6.08204 13.5757 7.21361 13.3784 8.31204C13.1811 9.41047 12.7348 10.444 12.0765 11.3268L16.6196 16.0551C16.7732 16.2206 16.8582 16.4423 16.8563 16.6725C16.8543 16.9026 16.7657 17.1228 16.6093 17.2855C16.4529 17.4482 16.2414 17.5405 16.0203 17.5425C15.7992 17.5445 15.5861 17.4561 15.4271 17.2962L10.8841 12.5679C9.88678 13.3737 8.69225 13.8722 7.43631 14.0065C6.18037 14.1408 4.91342 13.9056 3.77952 13.3277C2.64562 12.7498 1.69028 11.8524 1.02214 10.7374C0.353997 9.62248 -0.000140264 8.33477 4.16744e-08 7.02074Z" fill="black"/>
</svg>
