<svg width="381" height="72" viewBox="0 0 381 72" fill="none" xmlns="http://www.w3.org/2000/svg">
<path d="M153.5 46.3C151.94 46.3 150.56 46.05 149.36 45.55C148.18 45.05 147.24 44.38 146.54 43.54L149.45 41.02C150.07 41.64 150.77 42.1 151.55 42.4C152.33 42.68 153.07 42.82 153.77 42.82C154.05 42.82 154.3 42.79 154.52 42.73C154.74 42.67 154.92 42.59 155.06 42.49C155.22 42.37 155.34 42.24 155.42 42.1C155.5 41.94 155.54 41.76 155.54 41.56C155.54 41.16 155.36 40.85 155 40.63C154.82 40.53 154.52 40.41 154.1 40.27C153.68 40.13 153.14 39.97 152.48 39.79C151.54 39.55 150.72 39.27 150.02 38.95C149.34 38.61 148.78 38.22 148.34 37.78C147.94 37.36 147.63 36.9 147.41 36.4C147.19 35.88 147.08 35.3 147.08 34.66C147.08 33.92 147.25 33.25 147.59 32.65C147.95 32.05 148.42 31.53 149 31.09C149.6 30.65 150.28 30.32 151.04 30.1C151.82 29.86 152.62 29.74 153.44 29.74C154.32 29.74 155.16 29.84 155.96 30.04C156.76 30.24 157.5 30.52 158.18 30.88C158.88 31.24 159.5 31.67 160.04 32.17L157.52 34.99C157.16 34.65 156.75 34.35 156.29 34.09C155.85 33.81 155.39 33.59 154.91 33.43C154.43 33.27 153.99 33.19 153.59 33.19C153.29 33.19 153.02 33.22 152.78 33.28C152.56 33.32 152.37 33.4 152.21 33.52C152.05 33.62 151.93 33.75 151.85 33.91C151.77 34.05 151.73 34.22 151.73 34.42C151.73 34.62 151.78 34.81 151.88 34.99C152 35.17 152.16 35.32 152.36 35.44C152.56 35.56 152.88 35.7 153.32 35.86C153.76 36 154.36 36.18 155.12 36.4C156.06 36.66 156.87 36.95 157.55 37.27C158.23 37.59 158.77 37.97 159.17 38.41C159.49 38.75 159.73 39.15 159.89 39.61C160.05 40.05 160.13 40.53 160.13 41.05C160.13 42.07 159.84 42.98 159.26 43.78C158.7 44.56 157.92 45.18 156.92 45.64C155.92 46.08 154.78 46.3 153.5 46.3ZM162.984 52.6V30.07H167.544L167.724 33.64L166.824 33.37C166.964 32.71 167.304 32.11 167.844 31.57C168.384 31.03 169.064 30.6 169.884 30.28C170.724 29.94 171.604 29.77 172.524 29.77C173.884 29.77 175.094 30.13 176.154 30.85C177.214 31.55 178.044 32.52 178.644 33.76C179.264 34.98 179.574 36.4 179.574 38.02C179.574 39.62 179.264 41.04 178.644 42.28C178.044 43.52 177.204 44.5 176.124 45.22C175.064 45.92 173.844 46.27 172.464 46.27C171.564 46.27 170.704 46.1 169.884 45.76C169.064 45.42 168.374 44.96 167.814 44.38C167.254 43.8 166.884 43.17 166.704 42.49L167.814 42.07V52.6H162.984ZM171.294 42.22C172.014 42.22 172.644 42.05 173.184 41.71C173.724 41.35 174.144 40.86 174.444 40.24C174.744 39.62 174.894 38.88 174.894 38.02C174.894 37.18 174.744 36.45 174.444 35.83C174.144 35.19 173.724 34.7 173.184 34.36C172.664 34 172.034 33.82 171.294 33.82C170.554 33.82 169.914 33.99 169.374 34.33C168.834 34.67 168.414 35.16 168.114 35.8C167.814 36.44 167.664 37.18 167.664 38.02C167.664 38.88 167.814 39.62 168.114 40.24C168.414 40.86 168.834 41.35 169.374 41.71C169.914 42.05 170.554 42.22 171.294 42.22ZM188.639 46.27C187.299 46.27 186.099 45.92 185.039 45.22C183.999 44.5 183.169 43.52 182.549 42.28C181.929 41.02 181.619 39.6 181.619 38.02C181.619 36.4 181.929 34.97 182.549 33.73C183.169 32.49 184.019 31.52 185.099 30.82C186.179 30.1 187.409 29.74 188.789 29.74C189.549 29.74 190.239 29.85 190.859 30.07C191.499 30.29 192.059 30.6 192.539 31C193.019 31.38 193.429 31.83 193.769 32.35C194.109 32.85 194.359 33.39 194.519 33.97L193.529 33.85V30.07H198.299V46H193.439V42.16L194.519 42.13C194.359 42.69 194.099 43.22 193.739 43.72C193.379 44.22 192.939 44.66 192.419 45.04C191.899 45.42 191.319 45.72 190.679 45.94C190.039 46.16 189.359 46.27 188.639 46.27ZM189.959 42.22C190.699 42.22 191.339 42.05 191.879 41.71C192.419 41.37 192.839 40.89 193.139 40.27C193.439 39.63 193.589 38.88 193.589 38.02C193.589 37.16 193.439 36.42 193.139 35.8C192.839 35.16 192.419 34.67 191.879 34.33C191.339 33.97 190.699 33.79 189.959 33.79C189.239 33.79 188.609 33.97 188.069 34.33C187.549 34.67 187.139 35.16 186.839 35.8C186.539 36.42 186.389 37.16 186.389 38.02C186.389 38.88 186.539 39.63 186.839 40.27C187.139 40.89 187.549 41.37 188.069 41.71C188.609 42.05 189.239 42.22 189.959 42.22ZM209.524 46.3C207.984 46.3 206.604 45.94 205.384 45.22C204.164 44.5 203.194 43.52 202.474 42.28C201.774 41.02 201.424 39.6 201.424 38.02C201.424 36.44 201.774 35.03 202.474 33.79C203.194 32.53 204.164 31.54 205.384 30.82C206.604 30.1 207.984 29.74 209.524 29.74C210.944 29.74 212.244 29.99 213.424 30.49C214.624 30.99 215.574 31.69 216.274 32.59L213.664 35.71C213.384 35.39 213.054 35.09 212.674 34.81C212.294 34.53 211.874 34.31 211.414 34.15C210.954 33.99 210.474 33.91 209.974 33.91C209.214 33.91 208.544 34.09 207.964 34.45C207.384 34.79 206.934 35.27 206.614 35.89C206.294 36.51 206.134 37.22 206.134 38.02C206.134 38.78 206.294 39.47 206.614 40.09C206.954 40.71 207.414 41.2 207.994 41.56C208.574 41.92 209.234 42.1 209.974 42.1C210.494 42.1 210.974 42.04 211.414 41.92C211.854 41.78 212.254 41.58 212.614 41.32C212.994 41.06 213.344 40.74 213.664 40.36L216.244 43.51C215.564 44.37 214.614 45.05 213.394 45.55C212.194 46.05 210.904 46.3 209.524 46.3ZM226.472 46.3C224.712 46.3 223.182 45.95 221.882 45.25C220.582 44.53 219.572 43.56 218.852 42.34C218.132 41.1 217.772 39.69 217.772 38.11C217.772 36.89 217.972 35.77 218.372 34.75C218.772 33.73 219.332 32.85 220.052 32.11C220.772 31.35 221.622 30.77 222.602 30.37C223.602 29.95 224.692 29.74 225.872 29.74C226.992 29.74 228.012 29.94 228.932 30.34C229.872 30.74 230.682 31.3 231.362 32.02C232.042 32.74 232.562 33.59 232.922 34.57C233.282 35.55 233.442 36.62 233.402 37.78L233.372 39.07H220.682L219.992 36.37H229.472L228.962 36.94V36.34C228.922 35.84 228.762 35.4 228.482 35.02C228.222 34.62 227.872 34.31 227.432 34.09C226.992 33.87 226.492 33.76 225.932 33.76C225.152 33.76 224.482 33.92 223.922 34.24C223.382 34.54 222.972 34.99 222.692 35.59C222.412 36.17 222.272 36.89 222.272 37.75C222.272 38.63 222.452 39.4 222.812 40.06C223.192 40.7 223.732 41.2 224.432 41.56C225.152 41.92 226.002 42.1 226.982 42.1C227.662 42.1 228.262 42 228.782 41.8C229.322 41.6 229.902 41.26 230.522 40.78L232.772 43.96C232.152 44.5 231.492 44.94 230.792 45.28C230.092 45.62 229.372 45.87 228.632 46.03C227.912 46.21 227.192 46.3 226.472 46.3Z" fill="#EDB426"/>
<rect x="3.5" y="3.5" width="374" height="65" rx="11.5" stroke="#EDB426" stroke-width="7"/>
</svg>
