<?xml version="1.0" encoding="UTF-8"?>
<svg id="Layer_2" data-name="Layer 2" xmlns="http://www.w3.org/2000/svg" viewBox="0 0 104.93 82.21">
  <defs>
    <style>
      .cls-1 {
        fill: #03050f;
      }

      .cls-1, .cls-2, .cls-3 {
        stroke-width: 0px;
      }

      .cls-2 {
        fill: #f4be42;
      }

      .cls-3 {
        fill: #79c9bc;
      }

      .cls-4 {
        fill: none;
        stroke: #5e726e;
        stroke-miterlimit: 10;
        stroke-width: 3px;
      }
    </style>
  </defs>
  <g id="Layer_2-2" data-name="Layer 2">
    <g>
      <polygon class="cls-4" points="42.77 21.24 29.09 21.24 22.25 33.08 29.09 44.93 42.77 44.93 49.61 33.08 42.77 21.24"/>
      <polygon class="cls-4" points="22.25 33.08 8.57 33.08 1.73 44.93 8.57 56.78 22.25 56.78 29.09 44.93 22.25 33.08"/>
      <polygon class="cls-4" points="42.77 44.93 29.09 44.93 22.25 56.78 29.09 68.62 42.77 68.62 49.61 56.78 42.77 44.93"/>
      <polygon class="cls-4" points="63.69 33.32 50.01 33.32 43.17 45.17 50.01 57.01 63.69 57.01 70.53 45.17 63.69 33.32"/>
      <polygon class="cls-4" points="63.16 57.01 49.48 57.01 42.64 68.86 49.48 80.71 63.16 80.71 70 68.86 63.16 57.01"/>
      <g>
        <path class="cls-2" d="M57.43,14.63c-34.41,25.41,7.68,67.5,34.68,33.35,8.47-8.47,11.38-31.24,2.65-38.12-5.82-4.76-18.93-8.82-37.33,4.76Z"/>
        <path class="cls-1" d="M58.09,14.21c5.53.13,30.07,13.84,34.52,33.25,0,0,2.02-2.2,3.25-4.74,0-4.31-11.86-26.51-33.42-31.5l-4.35,2.99Z"/>
        <path class="cls-1" d="M68,8.38c12.22,1.77,27.56,17.83,30.23,28.41,0,0,1.18-4.14,1.55-7.45-.7-3.97-14.93-19.92-24.7-23.3l-7.09,2.34Z"/>
        <path class="cls-1" d="M81.16,5.37c3.21,1.36,15.55,11.42,18.84,17.59.17-9.91-5.89-16.91-17.86-17.78l-.98.19Z"/>
        <path class="cls-1" d="M97.38,39.24c2.63-.95,6.3,1.1,5.2,2.84-.68,1.21-3.31.87-6.41-.02l1.2-2.82Z"/>
        <path class="cls-1" d="M66.72,8.98c.76-2.69-1.55-6.04-3.2-4.82-1.16.77-.67,3.21.44,6.24l2.76-1.42Z"/>
        <path class="cls-1" d="M87.33,6.23c1.71-1.68.25-6.43-1.5-6.22s-2,2-1.37,3.96.21,1.92.21,1.92l2.67.34Z"/>
        <path class="cls-1" d="M98.61,18.22c1.54-1.83,6.39-.74,6.32,1.02s-1.84,2.15-3.84,1.67-1.93-.06-1.93-.06l-.55-2.63Z"/>
        <path class="cls-3" d="M82.62,56.55c-8.57,34.89,43.62,20.81,11.33-10.56,0,0-5.07,6.04-10.77,9.96l-.55.6Z"/>
        <path class="cls-3" d="M48.74,23.24c-35.42,6.03-17.61-45,11.35-10.53,0,0-6.39,4.62-10.71,10.02l-.64.51Z"/>
      </g>
    </g>
  </g>
</svg>