<?xml version="1.0" encoding="UTF-8"?>
<svg id="Layer_2" data-name="Layer 2" xmlns="http://www.w3.org/2000/svg" viewBox="0 0 112.5 136.67">
  <defs>
    <style>
      .cls-1 {
        fill: #a9d2de;
      }

      .cls-1, .cls-2, .cls-3, .cls-4, .cls-5, .cls-6, .cls-7, .cls-8, .cls-9, .cls-10, .cls-11 {
        stroke-width: 0px;
      }

      .cls-2 {
        fill: #071b1b;
      }

      .cls-3 {
        fill: #e7824e;
      }

      .cls-4 {
        fill: #eeb43f;
      }

      .cls-5 {
        fill: #f3d0b6;
      }

      .cls-6 {
        fill: #0d1b1a;
      }

      .cls-7 {
        fill: #1d2c29;
      }

      .cls-8 {
        fill: #edb43f;
      }

      .cls-9 {
        fill: #05141b;
      }

      .cls-10 {
        fill: #270f0a;
      }

      .cls-11 {
        fill: #e2805a;
      }
    </style>
  </defs>
  <g id="Layer_2-2" data-name="Layer 2">
    <g>
      <g>
        <g>
          <g>
            <path class="cls-1" d="M92.71,38.25c-7.04,2.26-2.8,11.41,3.35,16.51,6.54-3.15,2.94-18.53-3.35-16.51Z"/>
            <path class="cls-4" d="M95.98,50.4c-24.43-13.86-43.94,16.32-22.04,26.45.2.09.42.19.65.28-.08,1.84-.03,4.31,1.22,3.99.68-.14.94-1.58,1.03-3.19.47.15.95.29,1.46.44.07,1.34.79,5.61,2.5,3.78,0,0,.24-.91.19-3.08,2.82.68,5.85,1.27,8.45,1.74h-.07c0,1.21-.52,3.82.37,3.41.52-.29,2.21-2.38,2.49-2.93h-.02c.36.06.69.11,1,.16h-.03c.34.33-.05,4.32,1.25,3.6.74-.2,1.49-2.01,1.59-3.17,20.6-5.32,5.68-28.13-.03-31.46Z"/>
            <path class="cls-6" d="M92.47,48.63c.76,8.72-5.81,26.48-11.5,30.43,0,0,1.58.4,3.36.75,1.71-.24,13.04-18.2,11.32-29.56,0,0-2.15-1.34-2.94-1.56l-.24-.07Z"/>
            <path class="cls-6" d="M97.39,51.31c2.54,10.68-3.99,25.16-10.42,29.04,1.35.27,3.63.85,3.97.82.78.06,10.77-11.53,10-25.65,0,0-2.56-3.07-3.06-3.64l-.5-.57Z"/>
            <path class="cls-6" d="M102.73,58.21c1.35,5.52-3.35,18.13-7.17,21.6.47.53.23,1.53.23,2.06,1.31-.07,2.55-.65,3.13-.94.88-.47,6.63-11.9,6.74-16.19-.51-2.2-2.4-5.67-2.61-5.95l-.34-.58Z"/>
            <path class="cls-1" d="M112.16,47.05c2.3,7.02-7.59,8.97-15.33,6.99-1.29-7.15,13.27-13.27,15.33-6.99Z"/>
            <g>
              <ellipse class="cls-10" cx="81.69" cy="59.15" rx="1.19" ry=".85" transform="translate(-.79 117.2) rotate(-71.05)"/>
              <ellipse class="cls-10" cx="72.02" cy="56.45" rx="1.19" ry=".85" transform="translate(-4.76 106.23) rotate(-71.05)"/>
              <ellipse class="cls-11" cx="83.09" cy="62.76" rx="1.47" ry=".9" transform="translate(-17.97 37.67) rotate(-23.12)"/>
              <ellipse class="cls-11" cx="68.81" cy="58.61" rx=".9" ry="1.47" transform="translate(-21.06 48.97) rotate(-34.3)"/>
              <path class="cls-10" d="M73.98,61.3c-.12-.6-.74-.81-.66.05.15.63.93,1.6,2.35.75.38-.22.12-.71-.45-.38-.68.29-1.08.38-1.25-.42Z"/>
            </g>
            <path class="cls-7" d="M84.9,51.27c-.2.55-.93.63-.59-.47.55-1.23.38-4.57-2.62-5.46,0,0-.25-.85,0-.97,1.35-.04,4.82,2.5,3.22,6.9Z"/>
            <path class="cls-7" d="M76.64,49.56c-.2.44-.93.5-.59-.37.55-.97.38-3.61-2.62-4.31,0,0-.25-.67,0-.77,1.35-.03,4.82,1.97,3.22,5.44Z"/>
          </g>
          <path class="cls-7" d="M105.21,75.43c0,.39-.67,1.67-1.23,1.95.78.11,1.51.89,1.78,1.34s.87.18.78-.77-1.34-2.52-1.34-2.52Z"/>
        </g>
        <g>
          <g>
            <path class="cls-1" d="M20.64.29c6.82,2.84,1.84,11.61-4.71,16.18C9.67,12.78,14.54-2.25,20.64.29Z"/>
            <path class="cls-4" d="M16.37,12.12C41.87.33,58.8,32.03,36.14,40.3c-.21.08-.44.15-.67.23-.07,1.84-.33,4.3-1.54,3.87-.66-.19-.8-1.65-.76-3.26-.48.11-.97.21-1.49.31-.18,1.32-1.26,5.53-2.8,3.56,0,0-.17-.92.07-3.08-2.86.44-5.93.78-8.56,1.03h.07c-.1,1.21.2,3.85-.66,3.38-.5-.33-2-2.56-2.24-3.13h.02c-.36.03-.7.05-1.01.08h.03c-.37.31-.31,4.31-1.54,3.49-.72-.26-1.32-2.12-1.32-3.29-20.08-7.01-3.32-28.5,2.65-31.35Z"/>
            <path class="cls-6" d="M20.01,10.64c-1.49,8.62,3.59,26.88,8.93,31.28,0,0-1.61.27-3.41.47-1.68-.38-11.48-19.22-8.82-30.4,0,0,2.26-1.15,3.05-1.31l.24-.05Z"/>
            <path class="cls-6" d="M14.88,12.91c-3.42,10.44,1.88,25.41,7.97,29.8-1.37.16-3.69.54-4.03.49-.78,0-9.78-12.39-7.83-26.39,0,0,2.81-2.85,3.35-3.37l.54-.52Z"/>
            <path class="cls-6" d="M8.99,19.34c-1.81,5.39,1.83,18.35,5.35,22.12-.51.49-.36,1.51-.41,2.03-1.3-.17-2.48-.86-3.04-1.19-.84-.54-5.61-12.41-5.37-16.69.69-2.15,2.86-5.45,3.09-5.71l.39-.55Z"/>
            <path class="cls-1" d="M.52,7.43c-2.88,6.81,6.82,9.57,14.7,8.24C17.1,8.66,3.09,1.35.52,7.43Z"/>
            <g>
              <ellipse class="cls-10" cx="29.88" cy="22.03" rx=".85" ry="1.19" transform="translate(-4.49 7.99) rotate(-14.18)"/>
              <ellipse class="cls-10" cx="39.74" cy="20.14" rx=".85" ry="1.19" transform="translate(-3.72 10.35) rotate(-14.18)"/>
              <ellipse class="cls-11" cx="28.19" cy="25.51" rx=".9" ry="1.47" transform="translate(-7.55 38.49) rotate(-62.11)"/>
              <ellipse class="cls-11" cx="42.76" cy="22.57" rx="1.47" ry=".9" transform="translate(-1.71 41.54) rotate(-50.93)"/>
              <path class="cls-10" d="M37.38,24.81c.17-.59.8-.74.65.11-.2.61-1.06,1.52-2.41.55-.36-.25-.06-.72.48-.34.66.34,1.05.47,1.28-.32Z"/>
            </g>
            <path class="cls-7" d="M27.34,13.91c.16.57.87.71.63-.41-.45-1.27,0-4.59,3.07-5.22,0,0,.32-.82.08-.97-1.35-.15-5.01,2.09-3.78,6.61Z"/>
            <path class="cls-7" d="M35.7,12.89c.16.45.89.58.62-.32-.47-1.01-.08-3.63,2.97-4.07,0,0,.31-.64.06-.77-1.35-.15-4.97,1.56-3.66,5.16Z"/>
          </g>
          <path class="cls-7" d="M5.09,36.29c-.03.39.53,1.72,1.06,2.05-.79.05-1.58.76-1.89,1.19s-.89.11-.71-.83,1.54-2.4,1.54-2.4Z"/>
        </g>
        <ellipse class="cls-11" cx="68.57" cy="91.69" rx="1.49" ry=".76" transform="translate(-43.88 113.22) rotate(-64.05)"/>
        <g>
          <path class="cls-1" d="M43.09,92.63c7.02,2.32,2.69,11.44-3.5,16.48-6.51-3.21-2.77-18.56,3.5-16.48Z"/>
          <path class="cls-1" d="M1.78,115.02c2.48-6.96,11.49-2.45,16.4,3.85-3.35,6.44-18.62,2.37-16.4-3.85Z"/>
          <g>
            <g>
              <path class="cls-8" d="M43.26,121.14c.08-9.61-1.29-13.05-3.74-17.48l.06.11c1.18-1.13,1.26-3.73.8-4.19-1.43-1.43-2.1,1.89-2.1,1.89-10.98-16.06-34.32-3.77-28.05,14.9l1.57,3.86c2.8,5.96,8.09,9.69,12.4,11.76l-.04-.02c-.37,7.19,2.66,4.98,2.68,1.14,10.79,2.76,14.95-4.16,16.08-9.24v.02c1.15.51,2.57.64,2.57.64,1.78-.14-1-2.92-2.23-3.36Z"/>
              <path class="cls-8" d="M8.56,117.99c1.57,2.53,3.1,1.91,3.1,1.91l-1.44-3.54c-.64-.75-3.23-.9-1.66,1.63Z"/>
            </g>
            <path class="cls-2" d="M37.1,103.62c-.07,1.31-12.41,12.85-24.24,14.01.49,1.2.22,2.45-1.19,2.22,0,0,.21.82.5,1.12,7.73-.54,21.67-7.7,27.97-16.16,0,0-.26-.57-.57-1.05-.06.79-2.13.81-2.13.02l-.35-.16Z"/>
            <path class="cls-2" d="M15.17,125.31c8.26-.66,22.06-7.11,26.99-15.63.44,1.17.7,2.9.75,3.94-.94,3.47-12.98,12.73-24.9,14.36-.69-.36-2.84-2.66-2.84-2.66Z"/>
            <path class="cls-2" d="M21.46,130.29c8.33-.12,17.66-7.61,21.72-13.47,0,0,.2,2.57.08,4.14-1.13,0-1.9.83-1.34,1.71-.28.81-9.91,8.62-15.14,9.59,0-1.17-2.3-1.21-2.54-.24,0,0-2.37-1.35-2.58-1.54l-.2-.19Z"/>
            <path class="cls-2" d="M25.2,100.56c-.11-1.45,1.44-2.96,3.33-1.97.36.09.23.66-.4.45-.69-.29-1.97-.94-2.41,1.41.02.4-.5.41-.52.11Z"/>
            <path class="cls-2" d="M13.58,106.19c.13-1.45,1.9-2.68,3.6-1.4.34.14.12.69-.47.38-.63-.4-1.79-1.25-2.61,1-.04.4-.56.32-.53.02Z"/>
            <path class="cls-2" d="M22.78,103.34c-.11,1.07-1.24,2-2.28,1.09-.21-.1-.06-.5.3-.28.39.28,1.1.88,1.65-.78.03-.29.35-.25.33-.03Z"/>
            <ellipse class="cls-11" cx="14.55" cy="108.89" rx=".76" ry="1.49" transform="translate(-95.24 104.92) rotate(-80.32)"/>
            <path class="cls-9" d="M19.36,95.34c-.84-3.5.96-5.59,1.55-5.77.72.03.74.83.21,1.15-.65.51-1.6,2.62-.97,4.28,0,0-.06.49-.53.34h-.27Z"/>
            <path class="cls-9" d="M15.46,98.04c-1.88-3.07-4.63-3.28-5.18-2.98-.48.53.07,1.11.66.96.82-.1,2.98.72,3.71,2.34,0,0,.39.3.61-.13l.19-.19Z"/>
          </g>
          <path class="cls-7" d="M36.57,132.63c1.17.97,2.59,1.99,3,1.29-.06-.95-.5-2.53-.61-2.89l-2.39,1.6Z"/>
        </g>
      </g>
      <g>
        <path class="cls-3" d="M42.93,66.52c-1.89-3.61,5.64-4.63,4.09,0-.24.99.48.79.95.53,2.7-2.98,6.18,3.46,1.32,3.39-.91-.05-.43.41,0,.77,1.81,1.85-1.08,5.66-3.54,2.01-.24-.49-.69-.42-1.08.3-1.28,3.13-7.53,1.48-3.23-2.39.39-.15.22-.54-.44-.69-3.16-.79-2.39-4.66,1.46-3.55.47.2.48-.36.48-.36Z"/>
        <path class="cls-5" d="M47.29,69.55l-.78,1s-.5.07-.78-.5-.43-.14-.6.18-.46.82-1.46-.18.89-.5.89-.5c0,0,.36-.25.21-.68s.42-.07.57.41.22-.33.43-.6.5.06.5.6,1.49-.98,1.03.26Z"/>
        <path class="cls-3" d="M29.18,80.99c-2.74-3.02,4.29-5.9,3.96-1.03.02,1.02.67.64,1.05.27,1.86-3.57,6.85,1.78,2.14,2.95-.89.18-.31.51.19.75,2.22,1.33.39,5.74-2.92,2.83-.36-.42-.77-.23-.97.56-.45,3.36-6.91,3.33-3.73-1.5.34-.24.08-.58-.6-.56-3.26.03-3.49-3.91.51-3.81.5.07.37-.47.37-.47Z"/>
        <path class="cls-5" d="M34.17,82.82l-.51,1.16s-.46.19-.88-.28-.45-.03-.54.32-.24.91-1.46.2.73-.71.73-.71c0,0,.28-.33.04-.71s.39-.18.65.26.13-.38.26-.69.5-.07.63.46,1.2-1.33,1.06,0Z"/>
        <path class="cls-3" d="M44.93,85.18c-3.69-1.73,1.68-7.1,3.26-2.48.41.93.86.33,1.07-.15.34-4.01,7.01-1,3.11,1.9-.76.51-.09.58.47.61,2.56.37,2.57,5.15-1.6,3.74-.49-.24-.8.08-.68.89.88,3.27-5.09,5.74-4.02.06.22-.36-.15-.57-.77-.28-2.99,1.29-4.73-2.26-1-3.71.49-.13.16-.58.16-.58Z"/>
        <path class="cls-5" d="M50.24,84.95l-.02,1.27s-.35.36-.92.08-.43.15-.37.51.13.93-1.27.74.4-.94.4-.94c0,0,.13-.41-.24-.67s.29-.32.7-.01-.03-.4-.02-.74.43-.26.76.18.59-1.69.98-.42Z"/>
      </g>
    </g>
  </g>
</svg>