<svg width="159" height="100" viewBox="0 0 159 100" fill="none" xmlns="http://www.w3.org/2000/svg">
<g clip-path="url(#clip0_711_3637)">
<path d="M45.1765 17.5353C45.2166 1.62193 66.6822 -5.30442 75.9981 10.1436C80.9034 -4.70617 107.528 -4.09464 106.82 17.5353C116.296 9.29276 142.68 23.5709 131.119 43.7384C162.876 43.2864 157.73 95.1875 124.423 81.8533C124.423 90.0692 109.787 100.093 101.58 90.6142C98.5998 99.096 81.5049 103.31 75.9848 94.6291C72.7235 102.114 50.8035 101.356 48.4645 91.4385C43.2385 98.8035 23.5773 90.9732 25.0743 82.1324C3.34146 91.4385 -12.6173 52.5791 19.3003 46.8227C12.1495 27.6655 28.3757 13.9724 41.8618 16.711L45.1632 17.5353H45.1765Z" fill="#F48978"/>
<path d="M99.4418 2.20691C104.294 4.02823 108.704 11.4731 107.515 17.0833C116.951 8.74772 145.781 23.5975 131.239 43.6719C165.71 37.6762 157.182 97.8995 124.423 81.8666C125.077 93.5922 105.724 99.2821 101.393 90.8136C101.527 99.681 79.0723 103.523 75.7977 94.8285C73.178 102.938 48.6784 101.29 48.2774 91.6379C44.1206 98.5908 23.5773 93.6453 24.8872 82.3319C7.01707 94.2037 -18.3246 53.1375 19.9686 46.4239C6.73638 54.3739 -0.60146 75.4853 29.5385 72.3611C29.8058 80.577 41.2069 87.3438 51.8194 77.3199C56.2702 90.7472 67.4173 92.7015 76.5863 84.233C82.3469 91.9171 91.7832 91.5315 96.3677 81.7602C98.0651 78.769 100.698 78.8886 104.093 80.9758C107.769 82.9301 114.184 85.8017 117.847 74.5946C119.29 69.9017 121.121 70.819 124.142 72.6403C133.177 76.1633 140.528 74.9801 141.571 61.8187C141.571 53.6693 132.536 51.6485 120.212 50.9971C113.917 50.9971 115.882 47.1551 118.114 45.0413C127.417 34.7116 124.382 27.1604 120.346 22.0686C117.205 19.33 111.311 16.9902 104.093 23.89C104.36 17.6283 106.325 10.4627 102.128 4.73283L99.4285 2.24679L99.4418 2.20691Z" fill="#ED7164"/>
<path d="M84.6993 23.8102C84.4855 19.2901 87.2255 15.7405 92.3847 15.9532C91.1818 13.547 84.5924 11.473 82.5073 19.8751C80.3153 16.8174 69.0078 17.8011 67.8049 25.5517C71.534 23.1455 78.8852 20.2074 82.6143 24.794C84.4855 25.8841 84.7661 25.339 84.6993 23.8102Z" fill="#ED7164"/>
<path d="M99.923 31.7469C100.057 36.4398 109.493 33.7543 110.576 31.7469C111.792 30.2712 113.409 31.2151 110.576 34.9641C107.742 38.7131 100.057 37.3837 98.9874 33.0231C97.9181 28.6626 99.9364 31.7469 99.9364 31.7469H99.923Z" fill="#ED7164"/>
<path d="M48.371 38.2212C48.5046 42.9141 57.9409 40.2287 59.0235 38.2212C60.2398 36.7455 61.8571 37.6894 59.0235 41.4384C56.19 45.1875 48.5046 43.858 47.4354 39.4975C46.3661 35.1369 48.3843 38.2212 48.3843 38.2212H48.371Z" fill="#ED7164"/>
<path d="M26.3708 57.2056C26.5045 61.8985 35.9407 59.213 37.0234 57.2056C38.2397 55.7299 39.8569 56.6738 37.0234 60.4228C34.1898 64.1718 26.5045 62.8424 25.4352 58.4819C24.3659 54.1213 26.3842 57.2056 26.3842 57.2056H26.3708Z" fill="#ED7164"/>
<path d="M114.946 60.4361C115.08 65.129 124.516 62.4435 125.599 60.4361C126.815 58.9604 128.432 59.9043 125.599 63.6533C122.765 67.4023 115.08 66.0729 114.011 61.7123C112.941 57.3518 114.96 60.4361 114.96 60.4361H114.946Z" fill="#ED7164"/>
<path d="M38.5173 29.3703C40.9758 26.2494 41.1647 22.3134 38.9393 20.579C36.7138 18.8447 32.9167 19.9687 30.4582 23.0896C27.9997 26.2105 27.8108 30.1465 30.0363 31.8809C32.2617 33.6152 36.0588 32.4912 38.5173 29.3703Z" fill="#FEFFFF"/>
<path d="M26.5312 41.239C28.3692 41.239 29.8593 39.4177 29.8593 37.171C29.8593 34.9242 28.3692 33.1029 26.5312 33.1029C24.6931 33.1029 23.2031 34.9242 23.2031 37.171C23.2031 39.4177 24.6931 41.239 26.5312 41.239Z" fill="#FEFFFF"/>
<path d="M57.9409 66.2457C62.0747 66.2457 65.4258 62.9126 65.4258 58.8009C65.4258 54.6892 62.0747 51.3561 57.9409 51.3561C53.8071 51.3561 50.456 54.6892 50.456 58.8009C50.456 62.9126 53.8071 66.2457 57.9409 66.2457Z" fill="#FEFFFF"/>
<path d="M61.1086 57.9899C59.3577 57.9899 57.9409 56.5807 57.9409 54.8392C57.9409 54.2542 58.1147 53.7092 58.3953 53.2439C58.2483 53.2439 58.1013 53.204 57.9409 53.204C54.9603 53.204 52.5411 55.6103 52.5411 58.5749C52.5411 61.5395 54.9603 63.9458 57.9409 63.9458C60.9215 63.9458 63.3407 61.5395 63.3407 58.5749C63.3407 58.1096 63.2605 57.6576 63.1536 57.2189C62.6056 57.6842 61.8972 57.9899 61.1086 57.9899Z" fill="#300000"/>
<path d="M94.6168 66.2457C98.7505 66.2457 102.102 62.9126 102.102 58.8009C102.102 54.6892 98.7505 51.3561 94.6168 51.3561C90.483 51.3561 87.1319 54.6892 87.1319 58.8009C87.1319 62.9126 90.483 66.2457 94.6168 66.2457Z" fill="#FEFFFF"/>
<path d="M97.7711 57.9899C96.0202 57.9899 94.6034 56.5807 94.6034 54.8392C94.6034 54.2542 94.7772 53.7092 95.0578 53.2439C94.9108 53.2439 94.7638 53.204 94.6034 53.204C91.6228 53.204 89.2036 55.6103 89.2036 58.5749C89.2036 61.5395 91.6228 63.9458 94.6034 63.9458C97.584 63.9458 100.003 61.5395 100.003 58.5749C100.003 58.1096 99.923 57.6576 99.8161 57.2189C99.2681 57.6842 98.5597 57.9899 97.7711 57.9899Z" fill="#300000"/>
<path d="M80.6227 65.6075H71.9216C71.3827 65.6075 70.9459 66.0421 70.9459 66.578C70.9459 67.114 71.3827 67.5485 71.9216 67.5485H80.6227C81.1616 67.5485 81.5984 67.114 81.5984 66.578C81.5984 66.0421 81.1616 65.6075 80.6227 65.6075Z" fill="#300000"/>
<path d="M58.5124 76.5876C62.8149 75.6059 65.7703 72.5011 65.1134 69.6529C64.4565 66.8046 60.4361 65.2915 56.1336 66.2732C51.831 67.2549 48.8757 70.3597 49.5326 73.208C50.1894 76.0562 54.2099 77.5693 58.5124 76.5876Z" fill="#AD1B0C"/>
<path d="M102.993 73.2041C103.65 70.3558 100.695 67.251 96.392 66.2693C92.0895 65.2876 88.0691 66.8007 87.4122 69.649C86.7553 72.4972 89.7107 75.602 94.0132 76.5837C98.3157 77.5654 102.336 76.0523 102.993 73.2041Z" fill="#AD1B0C"/>
<path d="M142.72 25.9638C142.279 25.8309 141.999 25.4586 141.892 24.8737C141.771 24.2754 141.825 23.6373 142.052 22.946C142.279 22.2547 142.613 21.6963 143.041 21.2975C143.482 20.8987 143.91 20.7657 144.351 20.8987C144.792 21.0316 145.059 21.3906 145.18 21.9755C145.3 22.5472 145.247 23.1853 145.019 23.8899C144.792 24.5945 144.471 25.1396 144.03 25.5517C143.603 25.9638 143.161 26.1101 142.72 25.9638ZM144.03 17.7612C144.284 16.9503 144.592 16.2722 144.939 15.7006C145.287 15.1422 145.648 14.6503 146.049 14.2515C146.436 13.8527 146.837 13.4804 147.238 13.1481C147.639 12.8157 148.027 12.4967 148.388 12.1776C148.748 11.8585 149.069 11.5129 149.363 11.114C149.657 10.7285 149.885 10.2632 150.058 9.71814C150.352 8.80083 150.379 7.98988 150.138 7.28528C149.898 6.58068 149.417 6.11538 148.708 5.88937C148.027 5.67666 147.358 5.70325 146.717 5.98243C146.075 6.26161 145.447 6.7535 144.859 7.44481L143.696 4.81253C144.618 3.73569 145.621 2.97791 146.69 2.5392C147.759 2.10049 148.882 2.0606 150.045 2.43285C150.954 2.72532 151.676 3.20392 152.21 3.89522C152.745 4.58653 153.066 5.42407 153.173 6.43444C153.279 7.44481 153.119 8.57483 152.718 9.83779C152.437 10.7152 152.117 11.4464 151.756 12.0579C151.395 12.6695 151.007 13.1747 150.606 13.5868C150.205 13.9989 149.804 14.3712 149.39 14.7168C148.976 15.0492 148.588 15.3948 148.214 15.7272C147.84 16.0595 147.492 16.4451 147.198 16.8838C146.891 17.3225 146.637 17.8543 146.423 18.519L144.044 17.7612H144.03Z" fill="#F48978"/>
<path d="M147.505 38.6998C147.131 38.4738 146.931 38.1282 146.904 37.6629C146.864 37.1976 146.984 36.7323 147.265 36.2802C147.545 35.8282 147.893 35.5092 148.334 35.3363C148.762 35.1635 149.163 35.1901 149.537 35.4161C149.911 35.6421 150.112 35.9878 150.152 36.4398C150.179 36.9051 150.058 37.3571 149.791 37.8091C149.51 38.2611 149.149 38.5802 148.722 38.7663C148.294 38.9524 147.893 38.9258 147.519 38.7131L147.505 38.6998ZM149.617 33.0231C149.938 32.5047 150.285 32.0792 150.66 31.7602C151.034 31.4411 151.408 31.1885 151.796 31.0024C152.183 30.8163 152.584 30.6567 152.972 30.5238C153.36 30.3909 153.734 30.2579 154.095 30.125C154.456 29.992 154.776 29.8192 155.084 29.6198C155.378 29.4071 155.645 29.1412 155.859 28.7822C156.22 28.184 156.34 27.599 156.207 27.0141C156.073 26.4291 155.712 25.9505 155.111 25.5916C154.536 25.2327 153.948 25.0731 153.346 25.0997C152.745 25.1263 152.143 25.3124 151.542 25.6581L150.833 23.3847C151.769 22.853 152.745 22.5738 153.734 22.5472C154.736 22.5206 155.725 22.8131 156.701 23.4113C157.463 23.8766 158.051 24.4483 158.439 25.0997C158.826 25.7511 159.013 26.469 158.987 27.2401C158.96 28.0112 158.693 28.8088 158.185 29.6198C157.837 30.1914 157.463 30.6434 157.075 30.9891C156.688 31.3348 156.287 31.6006 155.886 31.8001C155.485 31.9862 155.084 32.159 154.683 32.2919C154.282 32.4249 153.894 32.5711 153.52 32.7041C153.146 32.837 152.798 33.0364 152.491 33.2757C152.17 33.515 151.889 33.8341 151.622 34.2595L149.617 33.0364V33.0231Z" fill="#F48978"/>
</g>
<defs>
<clipPath id="clip0_711_3637">
<rect width="159" height="100" fill="white"/>
</clipPath>
</defs>
</svg>
