<svg width="40" height="40" viewBox="0 0 40 40" fill="none" xmlns="http://www.w3.org/2000/svg">
<rect width="30" height="30" fill="#FFC93D"/>
<path d="M6.74 22.44V23H2.88V22.44L3.98 22.3C4.12667 22.2733 4.23333 22.2467 4.3 22.22C4.36667 22.18 4.42667 22.0933 4.48 21.96C4.53333 21.8267 4.60667 21.6133 4.7 21.32L8.52 9.4H10.24L14.08 21.32C14.1733 21.6133 14.2467 21.8267 14.3 21.96C14.3533 22.0933 14.4133 22.18 14.48 22.22C14.56 22.2467 14.6667 22.2733 14.8 22.3L15.9 22.44V23H10.38V22.44L11.48 22.3C11.6933 22.2733 11.8067 22.22 11.82 22.14C11.8467 22.0467 11.7867 21.7733 11.64 21.32L10.88 18.84H6.26L5.48 21.32C5.34667 21.7733 5.28667 22.0467 5.3 22.14C5.31333 22.22 5.42667 22.2733 5.64 22.3L6.74 22.44ZM6.5 18.14H10.66L8.6 11.5L6.5 18.14ZM26.4334 22.5C26.2201 22.7 25.9601 22.8667 25.6534 23C25.3601 23.1333 25.0001 23.2 24.5734 23.2C24.0268 23.2 23.5668 23.08 23.1934 22.84C22.8334 22.6 22.5934 22.26 22.4734 21.82C22.0334 22.3 21.5468 22.6533 21.0134 22.88C20.4934 23.0933 19.9601 23.2 19.4134 23.2C18.4934 23.2 17.8068 22.9467 17.3534 22.44C16.9001 21.92 16.6734 21.2733 16.6734 20.5C16.6734 19.7133 16.9601 19.08 17.5334 18.6C18.1068 18.1067 19.1201 17.86 20.5734 17.86H22.3934V16.24C22.3934 15.1333 22.2468 14.38 21.9534 13.98C21.6734 13.5667 21.2801 13.36 20.7734 13.36C20.4401 13.36 20.1334 13.4467 19.8534 13.62C19.5734 13.78 19.3734 14.0867 19.2534 14.54C19.1468 14.98 19.1668 15.62 19.3134 16.46L17.1134 16.14C17.0068 15.5267 17.0734 14.96 17.3134 14.44C17.5668 13.9067 17.9868 13.48 18.5734 13.16C19.1601 12.8267 19.9068 12.66 20.8134 12.66C21.8401 12.66 22.6334 12.8267 23.1934 13.16C23.7534 13.4933 24.1401 13.9333 24.3534 14.48C24.5801 15.0267 24.6934 15.6133 24.6934 16.24V20.86C24.6934 21.54 24.7534 21.9667 24.8734 22.14C24.9934 22.3133 25.1268 22.4 25.2734 22.4C25.5134 22.4 25.7801 22.26 26.0734 21.98L26.4334 22.5ZM20.2934 22.14C20.6401 22.14 20.9801 22.0533 21.3134 21.88C21.6601 21.6933 22.0201 21.3533 22.3934 20.86V18.56H20.8934C20.2401 18.56 19.7668 18.7133 19.4734 19.02C19.1801 19.3267 19.0334 19.8067 19.0334 20.46C19.0334 20.9933 19.1401 21.4067 19.3534 21.7C19.5668 21.9933 19.8801 22.14 20.2934 22.14Z" fill="black"/>
</svg>
