<svg width="144" height="175" viewBox="0 0 144 175" fill="none" xmlns="http://www.w3.org/2000/svg">
<path d="M72 143.617C111.765 143.617 144 111.467 144 71.8084C144 32.1497 111.765 0 72 0C32.2355 0 0 32.1497 0 71.8084C0 111.467 32.2355 143.617 72 143.617Z" fill="#FCF9CA"/>
<path d="M91.8133 29.0545H50.6967C47.8922 29.0545 45.6187 31.3219 45.6187 34.119C45.6187 36.916 47.8922 39.1834 50.6967 39.1834H91.8133C94.6177 39.1834 96.8912 36.916 96.8912 34.119C96.8912 31.3219 94.6177 29.0545 91.8133 29.0545Z" fill="#FFC93D"/>
<path d="M93.4617 36.7381H52.3452C49.541 36.7381 47.2672 34.4704 47.2672 31.6737C47.2672 31.1585 47.3444 30.6612 47.4888 30.1934C46.3489 31.123 45.6187 32.5342 45.6187 34.1191C45.6187 36.9158 47.8925 39.1835 50.6967 39.1835H91.8133C94.1009 39.1835 96.0343 37.6737 96.6696 35.5993C95.7949 36.3118 94.6788 36.7381 93.4617 36.7381Z" fill="#C18500"/>
<path d="M92.6939 31.5908H83.2444C82.7701 31.5908 82.3855 31.9743 82.3855 32.4474C82.3855 32.9205 82.7701 33.304 83.2444 33.304H92.6939C93.1682 33.304 93.5527 32.9205 93.5527 32.4474C93.5527 31.9743 93.1682 31.5908 92.6939 31.5908Z" fill="#FFDD99"/>
<path d="M92.6919 39.3336H50.2514C46.9026 39.3336 44.1879 42.041 44.1879 45.3809V103.583C44.1879 106.923 46.9026 109.63 50.2514 109.63H92.6919C96.0407 109.63 98.7554 106.923 98.7554 103.583V45.3809C98.7554 42.041 96.0407 39.3336 92.6919 39.3336Z" fill="#FFDD99"/>
<path d="M92.7948 39.3354C93.244 40.1781 93.4993 41.1374 93.4993 42.1538V100.356C93.4993 103.681 90.7703 106.403 87.4358 106.403H44.9933C44.9597 106.403 44.9241 106.401 44.8904 106.401C45.9116 108.315 47.9321 109.628 50.2475 109.628H92.6899C96.0244 109.628 98.7534 106.906 98.7534 103.581V45.3808C98.7534 42.0887 96.0818 39.3926 92.7928 39.3374L92.7948 39.3354Z" fill="#FFC93D"/>
<path d="M53.8946 42.6729C53.8946 41.9979 53.3484 41.4492 52.6697 41.4492H50.9242C48.5119 41.4611 47.3305 42.7262 47.2533 45.1104V78.3195C47.2533 79.4801 48.1953 80.4195 49.3589 80.4195C50.5225 80.4195 51.4645 79.4801 51.4645 78.3195V46.3538C51.5397 45.4617 52.0522 45.0611 52.8458 44.9762C53.4237 44.9762 53.8907 44.5104 53.8927 43.9341L53.8966 42.6709L53.8946 42.6729Z" fill="#FFF3DC"/>
<path d="M87.982 158.84C87.982 158.84 84.5109 142.243 82.2351 140.096C79.9613 137.946 77.6855 131.737 77.6855 129.469C77.6855 127.202 79.241 117.053 79.6011 113.948C79.9593 110.844 79.8129 99.9235 80.1612 98.4097C81.02 94.6814 82.0986 94.4781 83.2899 95.0821C86.2702 96.5939 85.346 109.768 86.7827 111.322C88.2194 112.875 93.1272 113.112 94.564 109.889C96.0007 106.666 99.8319 99.8603 97.7956 87.3235C97.0159 82.1031 99.5153 79.7525 101.176 78.8268C101.3 78.7578 101.803 79.1466 101.85 79.042C103.151 76.2492 105.577 82.19 106.056 86.2498C106.535 90.3097 107.977 109.527 107.55 115.488C107.209 120.254 98.6327 131.858 99.351 135.917C100.069 139.977 108.569 154.662 108.569 154.662L87.978 158.84H87.982Z" fill="#964A28"/>
<path d="M86.472 159.059L109.335 153.686C109.889 153.556 110.465 153.807 110.744 154.304L121.173 172.817C121.652 173.668 121.036 174.718 120.057 174.718H88.1957C87.5426 174.718 86.9945 174.226 86.9232 173.579L85.4924 160.436C85.4232 159.797 85.8427 159.205 86.472 159.057V159.059Z" fill="#FFC93D"/>
<path d="M101.747 79.0973C101.747 79.0973 103.91 93.4025 103.91 98.5222C103.91 103.642 103 117.099 103 117.099C103 117.099 104.971 101.485 105.021 99.7262C105.066 98.1591 103.432 84.142 103.077 81.1262C103.016 80.6012 102.846 80.09 102.555 79.6479C102.331 79.3085 102.044 79.0203 101.746 79.0953L101.747 79.0973Z" fill="#72341C"/>
<path d="M82.9337 97.3951C82.9337 99.0649 82.9871 100.583 82.2687 100.583C81.9501 100.583 80.6005 100.634 80.3749 100.192C80.0919 99.6372 80.3333 98.3247 80.3333 97.3951C80.3333 95.7254 80.9152 94.3715 81.6335 94.3715C82.3519 94.3715 82.9337 95.7254 82.9337 97.3951Z" fill="#72341C"/>
<path d="M100.028 80.9544C100.028 82.2254 99.9783 83.38 100.639 83.38C100.932 83.38 102.173 83.4195 102.381 83.082C102.642 82.6596 102.42 81.661 102.42 80.9544C102.42 79.6833 101.884 78.6531 101.223 78.6531C100.562 78.6531 100.026 79.6833 100.026 80.9544H100.028Z" fill="#72341C"/>
<path d="M102.741 80.5577C102.98 81.805 103.161 82.9478 103.687 82.8471C103.92 82.8017 104.918 82.6517 105.019 82.2886C105.147 81.8346 104.781 80.8873 104.647 80.1925C104.407 78.9452 103.784 78.0156 103.257 78.1162C102.731 78.2169 102.498 79.3103 102.739 80.5577H102.741Z" fill="#72341C"/>
<path d="M54.2468 158.84C54.2468 158.84 57.7179 142.243 59.9937 140.096C62.2675 137.946 64.5433 131.737 64.5433 129.469C64.5433 127.202 62.9878 117.053 62.6277 113.948C62.2695 110.844 62.4159 99.9235 62.0676 98.4097C61.2088 94.6814 60.1302 94.4781 58.9389 95.0821C55.9586 96.5939 56.8828 109.768 55.4461 111.322C54.0094 112.875 49.1016 113.112 47.6649 109.889C46.2281 106.666 42.3969 99.8603 44.4332 87.3235C45.2129 82.1031 42.7135 79.7525 41.0532 78.8268C40.9285 78.7578 40.4259 79.1466 40.3784 79.042C39.0782 76.2492 36.652 82.19 36.1731 86.2498C35.6942 90.3097 34.2516 109.527 34.679 115.488C35.0194 120.254 43.5961 131.858 42.8778 135.917C42.1594 139.977 33.6599 154.662 33.6599 154.662L54.2508 158.84H54.2468Z" fill="#964A28"/>
<path d="M55.7964 159.14L32.2964 153.619C31.9145 153.531 31.5187 153.702 31.3268 154.044L20.4168 173.414C20.0883 173.998 20.5118 174.72 21.1847 174.72H54.0866C54.5358 174.72 54.9138 174.383 54.9613 173.937L56.4673 160.089C56.5148 159.649 56.2259 159.243 55.7944 159.14H55.7964Z" fill="#FFC93D"/>
<path d="M40.4813 79.0973C40.4813 79.0973 38.3183 93.4025 38.3183 98.5222C38.3183 103.644 39.2286 117.099 39.2286 117.099C39.2286 117.099 37.2576 101.485 37.2081 99.7262C37.1626 98.1591 38.7972 84.142 39.1515 81.1262C39.2128 80.6012 39.383 80.09 39.6739 79.6479C39.8975 79.3085 40.1845 79.0203 40.4833 79.0953L40.4813 79.0973Z" fill="#72341C"/>
<path d="M59.2952 97.3951C59.2952 99.0649 59.2418 100.583 59.9601 100.583C60.2787 100.583 61.6284 100.634 61.854 100.192C62.137 99.6372 61.8955 98.3247 61.8955 97.3951C61.8955 95.7254 61.3137 94.3715 60.5954 94.3715C59.877 94.3715 59.2952 95.7254 59.2952 97.3951Z" fill="#72341C"/>
<path d="M42.2011 80.9544C42.2011 82.2254 42.2505 83.38 41.5896 83.38C41.2967 83.38 40.0559 83.4195 39.8481 83.082C39.5869 82.6596 39.8085 81.661 39.8085 80.9544C39.8085 79.6833 40.3448 78.6531 41.0058 78.6531C41.6667 78.6531 42.203 79.6833 42.203 80.9544H42.2011Z" fill="#72341C"/>
<path d="M39.4879 80.5577C39.2485 81.805 39.0684 82.9478 38.542 82.8471C38.3085 82.8017 37.3111 82.6517 37.2102 82.2886C37.0815 81.8346 37.4476 80.8873 37.5822 80.1925C37.8217 78.9452 38.445 78.0156 38.9714 78.1162C39.4978 78.2169 39.7313 79.3103 39.4899 80.5577H39.4879Z" fill="#72341C"/>
<path d="M72.5006 83.1136C72.5006 83.1136 63.6251 75.8465 62.6396 71.2024C61.654 66.5583 63.6251 64.7544 66.0908 64.5353C68.5566 64.3162 72.1721 69.0156 72.1721 69.0156C72.1721 69.0156 74.2421 64.7406 76.0628 64.1524C79.0925 63.1754 83.9805 65.6682 80.7746 72.0748C77.2481 79.1228 72.5006 83.1116 72.5006 83.1116V83.1136Z" fill="#F94654"/>
<path d="M51.4685 84.5071C51.4685 83.3516 50.5298 82.415 49.3718 82.415C48.2138 82.415 47.2751 83.3516 47.2751 84.5071V88.486C47.2751 89.6414 48.2138 90.5781 49.3718 90.5781C50.5298 90.5781 51.4685 89.6414 51.4685 88.486V84.5071Z" fill="#FFF3DC"/>
</svg>
