<?xml version="1.0" encoding="UTF-8"?>
<svg id="Layer_2" data-name="Layer 2" xmlns="http://www.w3.org/2000/svg" viewBox="0 0 50.5 40">
  <defs>
    <style>
      .cls-1 {
        fill: #000;
        stroke: #000;
        stroke-miterlimit: 10;
      }
    </style>
  </defs>
  <g id="Layer_2-2" data-name="Layer 2">
    <g>
      <path class="cls-1" d="M.5,15.45c0-1.13.78-2.15,2.11-2.15h6.87L21.69,3.13c.89-.89,3.81-1.3,3.81,1.03v31.37c0,1.51-1.94,3.37-3.8,1.51l-12.29-10.24H2.4c-1.51-.05-1.9-.97-1.9-2.64v-8.69Z"/>
      <path class="cls-1" d="M31.2,10.99c-.98-1.17,1.22-4.6,3.63-2.91,6.52,5.1,5.63,20.12,0,23.68-.92.28-4.61.1-3.26-3.28,3.6-7.21,4.49-11.67-.38-17.49Z"/>
      <path class="cls-1" d="M39.68,4.15c-1.3-2.11.71-4.67,2.96-3.22,9.45,6.73,10.23,30.92-.17,38.54-2.16.25-3.91-.83-3.07-3.3,8.4-12.57,8.66-18.4.28-32.02Z"/>
    </g>
  </g>
</svg>