<svg width="238" height="154" viewBox="0 0 238 154" fill="none" xmlns="http://www.w3.org/2000/svg">
<rect x="3.5" y="85.5" width="65" height="65" rx="11.5" stroke="#EDB426" stroke-width="7"/>
<rect x="86.5" y="85.5" width="65" height="65" rx="11.5" stroke="#EDB426" stroke-width="7"/>
<rect x="169.5" y="85.5" width="65" height="65" rx="11.5" stroke="#EDB426" stroke-width="7"/>
<rect x="86.5" y="3.5" width="65" height="65" rx="11.5" stroke="#EDB426" stroke-width="7"/>
<path d="M110.42 47L104.12 26H109.31L112.46 37.04C112.6 37.54 112.72 38.05 112.82 38.57C112.94 39.07 113.03 39.55 113.09 40.01C113.17 40.47 113.23 40.9 113.27 41.3C113.31 41.68 113.35 42 113.39 42.26H112.73C112.85 41.52 112.95 40.86 113.03 40.28C113.13 39.7 113.24 39.16 113.36 38.66C113.48 38.14 113.63 37.6 113.81 37.04L116.93 28.73H121.01L124.07 37.04C124.31 37.7 124.51 38.32 124.67 38.9C124.83 39.48 124.95 40.04 125.03 40.58C125.13 41.1 125.21 41.62 125.27 42.14L124.67 42.23C124.71 41.87 124.74 41.54 124.76 41.24C124.78 40.92 124.8 40.62 124.82 40.34C124.86 40.04 124.9 39.73 124.94 39.41C124.98 39.09 125.04 38.74 125.12 38.36C125.2 37.96 125.31 37.51 125.45 37.01L128.57 26H133.64L127.34 47H123.44L118.46 34.91L119.03 34.97L114.44 47H110.42Z" fill="#EDB426"/>
<path d="M24.97 129L33.28 108H37.6L45.85 129H40.69L36.73 118.35C36.57 117.93 36.41 117.48 36.25 117C36.09 116.52 35.93 116.03 35.77 115.53C35.61 115.01 35.45 114.51 35.29 114.03C35.15 113.53 35.03 113.07 34.93 112.65L35.83 112.62C35.71 113.12 35.57 113.61 35.41 114.09C35.27 114.57 35.12 115.05 34.96 115.53C34.82 115.99 34.66 116.46 34.48 116.94C34.3 117.4 34.13 117.88 33.97 118.38L30.01 129H24.97ZM28.93 124.98L30.52 121.14H40.18L41.74 124.98H28.93Z" fill="#EDB426"/>
<path d="M118.6 129.3C117.22 129.3 115.97 129.14 114.85 128.82C113.75 128.48 112.77 128 111.91 127.38C111.05 126.74 110.28 125.99 109.6 125.13L112.69 121.62C113.69 122.96 114.69 123.86 115.69 124.32C116.71 124.78 117.76 125.01 118.84 125.01C119.38 125.01 119.87 124.94 120.31 124.8C120.75 124.66 121.09 124.46 121.33 124.2C121.57 123.92 121.69 123.58 121.69 123.18C121.69 122.88 121.61 122.61 121.45 122.37C121.31 122.13 121.11 121.92 120.85 121.74C120.59 121.56 120.28 121.4 119.92 121.26C119.56 121.1 119.18 120.97 118.78 120.87C118.38 120.75 117.97 120.65 117.55 120.57C116.39 120.31 115.38 119.99 114.52 119.61C113.66 119.23 112.94 118.77 112.36 118.23C111.8 117.67 111.38 117.04 111.1 116.34C110.82 115.62 110.68 114.82 110.68 113.94C110.68 113 110.89 112.14 111.31 111.36C111.75 110.56 112.33 109.88 113.05 109.32C113.79 108.74 114.64 108.3 115.6 108C116.56 107.68 117.56 107.52 118.6 107.52C119.98 107.52 121.16 107.67 122.14 107.97C123.14 108.25 123.99 108.66 124.69 109.2C125.41 109.74 126.02 110.39 126.52 111.15L123.37 114.18C122.95 113.66 122.49 113.23 121.99 112.89C121.51 112.55 120.99 112.29 120.43 112.11C119.89 111.93 119.33 111.84 118.75 111.84C118.15 111.84 117.63 111.92 117.19 112.08C116.77 112.22 116.44 112.43 116.2 112.71C115.96 112.97 115.84 113.29 115.84 113.67C115.84 114.01 115.94 114.3 116.14 114.54C116.34 114.78 116.61 115 116.95 115.2C117.29 115.38 117.68 115.54 118.12 115.68C118.56 115.8 119.02 115.9 119.5 115.98C120.6 116.2 121.59 116.49 122.47 116.85C123.37 117.21 124.14 117.65 124.78 118.17C125.44 118.69 125.94 119.31 126.28 120.03C126.64 120.73 126.82 121.55 126.82 122.49C126.82 123.95 126.46 125.19 125.74 126.21C125.04 127.21 124.07 127.98 122.83 128.52C121.61 129.04 120.2 129.3 118.6 129.3Z" fill="#EDB426"/>
<path d="M194.64 129V108H203.43C204.97 108 206.38 108.26 207.66 108.78C208.94 109.28 210.04 110 210.96 110.94C211.9 111.88 212.62 112.99 213.12 114.27C213.62 115.55 213.87 116.96 213.87 118.5C213.87 120.04 213.62 121.46 213.12 122.76C212.62 124.04 211.9 125.15 210.96 126.09C210.04 127.01 208.94 127.73 207.66 128.25C206.38 128.75 204.97 129 203.43 129H194.64ZM199.74 125.52L199.05 124.5H203.28C204.12 124.5 204.87 124.36 205.53 124.08C206.19 123.78 206.75 123.37 207.21 122.85C207.69 122.33 208.06 121.7 208.32 120.96C208.58 120.22 208.71 119.4 208.71 118.5C208.71 117.6 208.58 116.78 208.32 116.04C208.06 115.3 207.69 114.67 207.21 114.15C206.75 113.63 206.19 113.23 205.53 112.95C204.87 112.65 204.12 112.5 203.28 112.5H198.96L199.74 111.54V125.52Z" fill="#EDB426"/>
</svg>
