<svg width="60" height="60" viewBox="0 0 60 60" fill="none" xmlns="http://www.w3.org/2000/svg">
<path d="M5 30.0001C5 34.9446 6.46622 39.7781 9.21326 43.8893C11.9603 48.0005 15.8648 51.2049 20.4329 53.0971C25.0011 54.9892 30.0277 55.4843 34.8773 54.5197C39.7268 53.5551 44.1814 51.174 47.6777 47.6777C51.174 44.1814 53.555 39.7268 54.5196 34.8773C55.4843 30.0278 54.9892 25.0011 53.097 20.433C51.2048 15.8648 48.0005 11.9604 43.8893 9.21332C39.778 6.46629 34.9445 5.00006 30 5.00006C26.717 5.00006 23.4661 5.64671 20.4329 6.90307C17.3998 8.15944 14.6438 10.0009 12.3223 12.3224C7.63392 17.0108 5 23.3696 5 30.0001ZM34.65 20.7751L41.8 28.2751C41.9058 28.3835 41.9906 28.5107 42.05 28.6501C42.1562 28.7677 42.2408 28.9031 42.3 29.0501C42.4323 29.3493 42.5006 29.6729 42.5006 30.0001C42.5006 30.3272 42.4323 30.6508 42.3 30.9501C42.181 31.2569 42.0026 31.5373 41.775 31.7751L34.275 39.2751C33.8042 39.7458 33.1658 40.0103 32.5 40.0103C31.8342 40.0103 31.1958 39.7458 30.725 39.2751C30.2542 38.8043 29.9898 38.1658 29.9898 37.5001C29.9898 36.8343 30.2542 36.1958 30.725 35.7251L33.975 32.5001H20C19.337 32.5001 18.7011 32.2367 18.2322 31.7678C17.7634 31.299 17.5 30.6631 17.5 30.0001C17.5 29.337 17.7634 28.7011 18.2322 28.2323C18.7011 27.7635 19.337 27.5001 20 27.5001H34.15L31.025 24.2251C30.5675 23.7444 30.3197 23.1016 30.3361 22.4382C30.3525 21.7748 30.6318 21.1451 31.1125 20.6876C31.5932 20.2301 32.236 19.9823 32.8994 19.9987C33.5628 20.0151 34.1925 20.2944 34.65 20.7751Z" fill="#FFC93D"/>
</svg>
