<?xml version="1.0" encoding="UTF-8"?>
<svg id="Layer_2" data-name="Layer 2" xmlns="http://www.w3.org/2000/svg" viewBox="0 0 466 283">
  <defs>
    <style>
      .cls-1 {
        fill: #ffd073;
      }

      .cls-1, .cls-2, .cls-3, .cls-4, .cls-5, .cls-6, .cls-7 {
        stroke-width: 0px;
      }

      .cls-2 {
        fill: #edb426;
      }

      .cls-3 {
        fill: #fff8a1;
      }

      .cls-4 {
        fill: #87af1b;
      }

      .cls-5 {
        fill: #f4ebab;
      }

      .cls-6 {
        fill: #fff380;
      }

      .cls-7 {
        fill: #c18708;
      }
    </style>
  </defs>
  <g id="Bottom_Part" data-name="Bottom Part">
    <g>
      <path class="cls-4" d="M454,114h-24.67c4.67-55.77,4.67-97,4.67-97-4.49,15.34-12.62,40.9-21.04,66.88-6.26-14.55-13.74-26.25-22.61-31.75,0,0,9.93,24.16,16.3,51.12-1.19,3.63-2.36,7.22-3.51,10.74h-30.29c2.14-33.82,2.14-56,2.14-56-4.48,13.19-12.08,33.93-20.32,56h-12.93c-1.47-3.19-2.97-6.38-4.49-9.55,16.67-38.2,38.06-71.59,38.06-71.59-14.23,3.45-30.77,26.52-46.27,55.06-2.18-4.21-4.38-8.35-6.61-12.36,2.57-37.48,2.57-62.56,2.57-62.56-3.5,10.31-8.91,25.25-15.05,41.82-11.02-16.65-22.05-28.56-31.95-30.96,0,0,12.72,19.86,26.18,46.46-5.47,14.63-11.21,29.79-16.49,43.68h-4.05c2.36-38.83,2.36-65,2.36-65-4.38,14.97-12.23,39.67-20.43,65h-11.24c12.61-24.4,23.97-42.14,23.97-42.14-10.55,2.56-22.38,15.91-34.11,34.29,3.8-50.18,3.8-86.15,3.8-86.15-4.57,15.62-12.92,41.85-21.5,68.33-1.61-2.97-3.23-5.88-4.86-8.72,1.36-28.48,1.36-46.61,1.36-46.61-2.44,8.32-5.94,19.66-9.99,32.43-11.37-17.49-22.79-30.1-33.01-32.57,0,0,13.66,21.32,27.65,49.38-3.33,10.36-6.83,21.17-10.27,31.76h-15.82c-10.76-32.94-22.73-70.08-28.56-90,0,0,0,37.81,4.1,90h-29.52c5.42-55.77,5.42-97,5.42-97-4.44,13.07-11.94,33.55-20.1,55.4,2.1-33.48,2.1-55.4,2.1-55.4-6.28,18.49-18.69,51.82-30.42,82.85-5.95-18.56-11.26-35.5-14.58-46.85,0,0,0,24.38,2.12,61h-10.97c1.84-33.82,1.84-56,1.84-56-2.86,9.78-7.21,23.72-12.16,39.27,3.16-45.5,3.16-77.27,3.16-77.27-5.07,17.33-14.79,47.72-24.33,77.02-5.58-17.45-10.52-33.25-13.67-44.02,0,0,0,24.38,2.12,61h-6.12c-6.6,0-12,5.4-12,12v145c0,6.6,5.4,12,12,12h442c6.6,0,12-5.4,12-12V126c0-6.6-5.4-12-12-12ZM320.12,105.12c-.03.06-.06.12-.09.19.01-.11.02-.23.03-.34.02.05.04.1.06.15Z"/>
      <g>
        <path class="cls-4" d="M365.22,136.45l-.45-.89c21.5-10.75,25.64-61.92,25.68-62.43l1,.08c-.01.13-1.04,13.17-4.74,27.38-5,19.17-12.23,31.24-21.49,35.87Z"/>
        <g>
          <path class="cls-5" d="M403,55c1-1,9-6,13,1l1,1-1,8s-11,9-19,6c0,0-.92-2.76-2.76-2.99-.08,0-.16-.01-.24-.01-2,0,9-13,9-13Z"/>
          <path class="cls-6" d="M388,67c-1,1-10-23,5-25,0,0,3-1,5,1,0,0,7,2,6,12,0,0-6.49,11-9.74,12,0,0-4.26-2-6.26,0Z"/>
          <path class="cls-3" d="M387,67c0-8-9-26-13-22h-3s-1,0-1,2c0,0-1,0-1,1h-3v9s12,12,18,13l3-3Z"/>
          <path class="cls-6" d="M367,57l-4.45.21v7.32s1.45,11.47,5.45,12.47,9,0,10,11c0,0,2,3,4,0l7-4,9,4v-2.65l11,.65s1-4,7-5c0,0,12-11,3-16,0,0-18.47-.06-21,5h-6l-25-13Z"/>
          <ellipse class="cls-2" cx="391.37" cy="70.7" rx="4.67" ry="6.06" transform="translate(205.89 422.51) rotate(-72.44)"/>
          <circle class="cls-7" cx="395" cy="74" r="1"/>
          <circle class="cls-7" cx="389" cy="69" r="1"/>
          <circle class="cls-1" cx="393" cy="73" r="1"/>
          <circle class="cls-1" cx="390" cy="68" r="1"/>
          <circle class="cls-1" cx="391.5" cy="74.5" r=".5"/>
          <circle class="cls-1" cx="388.5" cy="73.5" r=".5"/>
          <circle class="cls-1" cx="392.5" cy="67.5" r=".5"/>
          <circle class="cls-7" cx="395.5" cy="71.5" r=".5"/>
          <circle class="cls-7" cx="387.5" cy="71.5" r=".5"/>
          <circle class="cls-7" cx="388.5" cy="71.5" r=".5"/>
        </g>
      </g>
      <g>
        <path class="cls-4" d="M288.22,169.45l-.45-.89c21.5-10.75,25.64-61.92,25.68-62.43l1,.08c-.01.13-1.04,13.17-4.74,27.38-5,19.17-12.23,31.24-21.49,35.87Z"/>
        <g>
          <path class="cls-5" d="M326,88c1-1,9-6,13,1l1,1-1,8s-11,9-19,6c0,0-.92-2.76-2.76-2.99-.08,0-.16-.01-.24-.01-2,0,9-13,9-13Z"/>
          <path class="cls-6" d="M311,100c-1,1-10-23,5-25,0,0,3-1,5,1,0,0,7,2,6,12,0,0-6.49,11-9.74,12,0,0-4.26-2-6.26,0Z"/>
          <path class="cls-3" d="M310,100c0-8-9-26-13-22h-3s-1,0-1,2c0,0-1,0-1,1h-3v9s12,12,18,13l3-3Z"/>
          <path class="cls-6" d="M290,90l-4.45.21v7.32s1.45,11.47,5.45,12.47,9,0,10,11c0,0,2,3,4,0l7-4,9,4v-2.65l11,.65s1-4,7-5c0,0,12-11,3-16,0,0-18.47-.06-21,5h-6l-25-13Z"/>
          <ellipse class="cls-2" cx="314.37" cy="103.7" rx="4.67" ry="6.06" transform="translate(120.66 372.14) rotate(-72.44)"/>
          <circle class="cls-7" cx="318" cy="107" r="1"/>
          <circle class="cls-7" cx="312" cy="102" r="1"/>
          <circle class="cls-1" cx="316" cy="106" r="1"/>
          <circle class="cls-1" cx="313" cy="101" r="1"/>
          <circle class="cls-1" cx="314.5" cy="107.5" r=".5"/>
          <circle class="cls-1" cx="311.5" cy="106.5" r=".5"/>
          <circle class="cls-1" cx="315.5" cy="100.5" r=".5"/>
          <circle class="cls-7" cx="318.5" cy="104.5" r=".5"/>
          <circle class="cls-7" cx="310.5" cy="104.5" r=".5"/>
          <circle class="cls-7" cx="311.5" cy="104.5" r=".5"/>
        </g>
      </g>
      <g>
        <path class="cls-4" d="M207.94,123.85l-.72-1.04c24.95-17.32,20.9-82.07,20.86-82.73l1.26-.08c0,.16,1.08,16.66-.99,35.11-2.8,24.88-9.66,41.28-20.41,48.74Z"/>
        <g>
          <path class="cls-5" d="M240.5,15.16c1.07-1.43,10.17-9.13,16.44-1.09l1.43,1.07.19,10.19s-12.14,13.24-22.68,10.93c0,0-1.65-3.28-3.99-3.24-.1,0-.2.01-.31.03-2.5.36,8.91-17.88,8.91-17.88Z"/>
          <path class="cls-6" d="M223.9,32.87c-1.07,1.43-16.66-26.96,1.74-32.17,0,0,3.57-1.79,6.43.35,0,0,9.12,1.24,9.67,13.93,0,0-6.13,14.93-10.02,16.77,0,0-5.68-1.73-7.82,1.13Z"/>
          <path class="cls-3" d="M222.65,33.06c-1.44-10.01-15.95-30.9-20.23-25.17l-3.75.54s-1.25.18-.89,2.68c0,0-1.25.18-1.07,1.43l-3.75.54,1.62,11.26s17.17,12.84,24.86,13.01l3.21-4.29Z"/>
          <path class="cls-6" d="M195.83,24.16l-5.53,1.07,1.32,9.15s3.88,14.08,9.07,14.61,11.26-1.62,14.49,11.95c0,0,3.04,3.39,5-.72l8.03-6.27,11.98,3.38-.48-3.31,13.88-1.18s.53-5.18,7.85-7.52c0,0,13.03-15.92.87-20.55,0,0-23.11,3.26-25.36,10.04l-7.5,1.08-33.62-11.75Z"/>
          <ellipse class="cls-2" cx="228.78" cy="36.9" rx="5.91" ry="7.66" transform="translate(155.2 256.65) rotate(-80.65)"/>
          <circle class="cls-7" cx="233.92" cy="40.37" r="1.26"/>
          <circle class="cls-7" cx="225.51" cy="35.2" r="1.26"/>
          <circle class="cls-1" cx="231.24" cy="39.48" r="1.26"/>
          <circle class="cls-1" cx="226.59" cy="33.76" r="1.26"/>
          <circle class="cls-1" cx="229.63" cy="41.62" r=".63"/>
          <circle class="cls-1" cx="225.7" cy="40.91" r=".63"/>
          <circle class="cls-1" cx="229.62" cy="32.69" r=".63"/>
          <circle class="cls-7" cx="234.1" cy="37.15" r=".63"/>
          <circle class="cls-7" cx="224.09" cy="38.59" r=".63"/>
          <circle class="cls-7" cx="225.34" cy="38.41" r=".63"/>
        </g>
      </g>
      <g>
        <path class="cls-4" d="M171.65,141.45l.39-.78c-18.86-9.43-22.49-54.31-22.53-54.76l-.88.07c0,.11.91,11.55,4.16,24.02,4.39,16.81,10.73,27.4,18.85,31.46Z"/>
        <g>
          <path class="cls-5" d="M138.52,70.01c-.88-.88-7.89-5.26-11.4.88l-.88.88.88,7.02s9.65,7.89,16.67,5.26c0,0,.81-2.42,2.42-2.62.07,0,.14-.01.21-.01,1.75,0-7.89-11.4-7.89-11.4Z"/>
          <path class="cls-6" d="M151.68,80.53c.88.88,8.77-20.17-4.39-21.93,0,0-2.63-.88-4.39.88,0,0-6.14,1.75-5.26,10.53,0,0,5.69,9.65,8.55,10.53,0,0,3.73-1.75,5.49,0Z"/>
          <path class="cls-3" d="M152.55,80.53c0-7.02,7.89-22.81,11.4-19.3h2.63s.88,0,.88,1.75c0,0,.88,0,.88.88h2.63v7.89s-10.53,10.53-15.79,11.4l-2.63-2.63Z"/>
          <path class="cls-6" d="M170.1,71.76l3.9.19v6.42s-1.27,10.06-4.78,10.94-7.89,0-8.77,9.65c0,0-1.75,2.63-3.51,0l-6.14-3.51-7.89,3.51v-2.32s-9.65.57-9.65.57c0,0-.88-3.51-6.14-4.39,0,0-10.53-9.65-2.63-14.03,0,0,16.2-.05,18.42,4.39h5.26s21.93-11.4,21.93-11.4Z"/>
          <ellipse class="cls-2" cx="148.72" cy="83.78" rx="5.32" ry="4.1" transform="translate(-18.35 48.77) rotate(-17.56)"/>
          <circle class="cls-7" cx="145.54" cy="86.67" r=".88"/>
          <circle class="cls-7" cx="150.8" cy="82.29" r=".88"/>
          <circle class="cls-1" cx="147.29" cy="85.8" r=".88"/>
          <circle class="cls-1" cx="149.92" cy="81.41" r=".88"/>
          <circle class="cls-1" cx="148.61" cy="87.11" r=".44"/>
          <circle class="cls-1" cx="151.24" cy="86.23" r=".44"/>
          <circle class="cls-1" cx="147.73" cy="80.97" r=".44"/>
          <circle class="cls-7" cx="145.1" cy="84.48" r=".44"/>
          <circle class="cls-7" cx="152.11" cy="84.48" r=".44"/>
          <circle class="cls-7" cx="151.24" cy="84.48" r=".44"/>
        </g>
      </g>
      <g>
        <path class="cls-4" d="M93.67,164.45l.45-.89c-21.5-10.75-25.64-61.92-25.68-62.43l-1,.08c.01.13,1.04,13.17,4.74,27.38,5,19.17,12.23,31.24,21.49,35.87Z"/>
        <g>
          <path class="cls-5" d="M55.9,83c-1-1-9-6-13,1l-1,1,1,8s11,9,19,6c0,0,.92-2.76,2.76-2.99.08,0,.16-.01.24-.01,2,0-9-13-9-13Z"/>
          <path class="cls-6" d="M70.9,95c1,1,10-23-5-25,0,0-3-1-5,1,0,0-7,2-6,12,0,0,6.49,11,9.74,12,0,0,4.26-2,6.26,0Z"/>
          <path class="cls-3" d="M71.9,95c0-8,9-26,13-22h3s1,0,1,2c0,0,1,0,1,1h3v9s-12,12-18,13l-3-3Z"/>
          <path class="cls-6" d="M91.9,85l4.45.21v7.32s-1.45,11.47-5.45,12.47-9,0-10,11c0,0-2,3-4,0l-7-4-9,4v-2.65s-11,.65-11,.65c0,0-1-4-7-5,0,0-12-11-3-16,0,0,18.47-.06,21,5h6s25-13,25-13Z"/>
          <ellipse class="cls-2" cx="67.53" cy="98.7" rx="6.06" ry="4.67" transform="translate(-26.63 24.97) rotate(-17.56)"/>
          <circle class="cls-7" cx="63.9" cy="102" r="1"/>
          <circle class="cls-7" cx="69.9" cy="97" r="1"/>
          <circle class="cls-1" cx="65.9" cy="101" r="1"/>
          <circle class="cls-1" cx="68.9" cy="96" r="1"/>
          <circle class="cls-1" cx="67.4" cy="102.5" r=".5"/>
          <circle class="cls-1" cx="70.4" cy="101.5" r=".5"/>
          <circle class="cls-1" cx="66.4" cy="95.5" r=".5"/>
          <circle class="cls-7" cx="63.4" cy="99.5" r=".5"/>
          <circle class="cls-7" cx="71.4" cy="99.5" r=".5"/>
          <circle class="cls-7" cx="70.4" cy="99.5" r=".5"/>
        </g>
      </g>
    </g>
  </g>
</svg>